<svg width="40" height="40" viewBox="0 0 40 40" fill="none" xmlns="http://www.w3.org/2000/svg">
<g clip-path="url(#clip0_3021_100)">
<path d="M27.0388 0.189191C26.4116 0.559504 25.3676 1.60794 24.127 3.12888L25.2682 5.28607C26.0713 4.14044 26.886 3.10575 27.7079 2.22357C27.4416 2.51513 26.6338 3.45982 25.4163 5.33013C26.5898 5.27232 28.3907 5.03138 29.8607 4.78138C30.3004 2.33013 29.4326 1.20982 29.4326 1.20982C29.4326 1.20982 28.3304 -0.572059 27.0388 0.189191Z" fill="url(#paint0_linear_3021_100)"/>
<path d="M23.1973 18.311C23.0514 18.3363 22.9036 18.3642 22.7483 18.3898C22.7483 18.3898 22.7461 18.3898 22.7461 18.392L22.9773 18.3573C23.0492 18.341 23.1233 18.3273 23.1973 18.311" fill="#BD202E"/>
<path opacity="0.35" d="M23.1973 18.311C23.0514 18.3363 22.9036 18.3642 22.7483 18.3898C22.7483 18.3898 22.7461 18.3898 22.7461 18.392L22.9773 18.3573C23.0492 18.341 23.1233 18.3273 23.1973 18.311" fill="#BD202E"/>
<path d="M23.5804 16.4248C23.5804 16.4248 23.5804 16.427 23.5804 16.4248C23.5786 16.4244 23.5778 16.4251 23.5782 16.427C23.6014 16.4248 23.6267 16.4201 23.6501 16.4154C23.747 16.4017 23.842 16.3854 23.9345 16.3623C23.8189 16.3832 23.7032 16.4039 23.5804 16.4248Z" fill="#BD202E"/>
<path opacity="0.35" d="M23.5804 16.4248C23.5804 16.4248 23.5804 16.427 23.5804 16.4248C23.5786 16.4244 23.5778 16.4251 23.5782 16.427C23.6014 16.4248 23.6267 16.4201 23.6501 16.4154C23.747 16.4017 23.842 16.3854 23.9345 16.3623C23.8189 16.3832 23.7032 16.4039 23.5804 16.4248Z" fill="#BD202E"/>
<path d="M21.8962 10.8626C22.2373 10.2237 22.5883 9.59014 22.9494 8.96228C23.3102 8.33291 23.6837 7.71091 24.0697 7.09666C24.0906 7.06166 24.1159 7.02478 24.1369 6.9901C24.4998 6.41462 24.8756 5.8474 25.2641 5.28885L24.1231 3.13135C24.0357 3.23783 23.9492 3.34513 23.8637 3.45322C23.5152 3.88801 23.1741 4.32869 22.8406 4.7751C22.4263 5.33003 22.0211 5.89177 21.6253 6.4601C21.2315 7.02543 20.8457 7.59632 20.4681 8.1726C20.1315 8.6866 19.802 9.20519 19.4797 9.72822C19.468 9.74718 19.4566 9.76728 19.4453 9.78853L20.9334 12.7282C21.2446 12.1013 21.5656 11.4794 21.8962 10.8626Z" fill="url(#paint1_linear_3021_100)"/>
<path d="M15.1192 27.4172C14.918 27.9676 14.7205 28.5192 14.5267 29.0722C14.5242 29.0791 14.522 29.0885 14.5173 29.0954C14.4895 29.1741 14.4595 29.255 14.4342 29.3338C14.2998 29.7135 14.1842 30.056 13.918 30.8316C14.3555 31.0307 14.7073 31.5582 15.0405 32.1554C15.0099 31.5247 14.7301 30.932 14.2627 30.5075C16.4223 30.6044 18.2836 30.0585 19.2464 28.4797C19.332 28.3385 19.4108 28.1925 19.4823 28.0329C19.0448 28.5885 18.5011 28.8222 17.4802 28.7666C18.9848 28.0932 19.737 27.4472 20.4061 26.3779C20.5636 26.1235 20.7186 25.8479 20.8761 25.54C19.5611 26.8894 18.0405 27.2738 16.4364 26.9822L15.2327 27.1141C15.1933 27.216 15.1586 27.3154 15.1192 27.4172Z" fill="url(#paint2_linear_3021_100)"/>
<path d="M15.6829 24.7249C15.9423 24.054 16.2107 23.3734 16.4838 22.6884C16.7488 22.0258 17.0189 21.3652 17.2941 20.7068C17.5733 20.0397 17.8556 19.3738 18.141 18.7093C18.4333 18.0312 18.7335 17.3553 19.0416 16.6815C19.3422 16.0181 19.6493 15.3576 19.9629 14.7003C20.0738 14.464 20.1898 14.2281 20.3032 13.994C20.5001 13.589 20.6988 13.1862 20.9001 12.7881C20.912 12.7674 20.921 12.7443 20.9326 12.7234L19.4445 9.78369C19.421 9.82384 19.3963 9.86324 19.3704 9.90182C19.0186 10.4754 18.6752 11.0541 18.3404 11.6378C17.9949 12.2404 17.6592 12.8485 17.3332 13.4618C17.0564 13.9841 16.7855 14.5096 16.5207 15.0381C16.4676 15.1443 16.4166 15.2534 16.3635 15.3599C16.0544 15.9972 15.7603 16.6416 15.4816 17.2928C15.1972 17.9544 14.9325 18.6244 14.6879 19.3018C14.5348 19.7206 14.3982 20.1237 14.271 20.5124C14.167 20.8434 14.0695 21.1768 13.9723 21.5078C13.7516 22.2762 13.5609 23.0529 13.4004 23.8362L14.896 26.7874C15.0929 26.2599 15.2963 25.7228 15.5048 25.1812C15.5673 25.0262 15.6229 24.8734 15.6829 24.7249Z" fill="url(#paint3_linear_3021_100)"/>
<path d="M13.3838 23.9361C13.1963 24.8805 13.0619 25.8205 12.9947 26.7555L12.9878 26.8524C12.5203 26.1049 11.2728 25.3758 11.275 25.3827C12.1709 26.6789 12.8491 27.9661 12.9484 29.2295C12.4694 29.327 11.8141 29.1858 11.0575 28.908C11.8469 29.6349 12.4394 29.8339 12.6731 29.8892C11.9463 29.9358 11.1919 30.4336 10.43 31.0077C11.5434 30.5539 12.4441 30.3733 13.0875 30.5192C12.0644 33.4124 11.0413 36.6067 10.0156 40.0002C10.3306 39.9077 10.5181 39.6946 10.6222 39.4099C10.805 38.7964 12.0159 34.7642 13.9159 29.4705C13.9716 29.3202 14.025 29.1674 14.0803 29.0167C14.0949 28.973 14.1104 28.9313 14.1269 28.8917C14.3259 28.3364 14.5363 27.7692 14.7494 27.1905C14.7981 27.0586 14.8466 26.9267 14.8975 26.7949C14.8975 26.7924 14.9 26.7902 14.9 26.7877L13.4022 23.8364C13.3967 23.8698 13.3908 23.903 13.3838 23.9361Z" fill="url(#paint4_linear_3021_100)"/>
<path d="M21.1627 12.9689C21.119 13.057 21.0771 13.1448 21.033 13.2329C20.9037 13.4989 20.7737 13.7698 20.6396 14.0476C20.4959 14.3486 20.3527 14.6539 20.2068 14.9689C20.1326 15.1264 20.0586 15.2861 19.9846 15.4479C19.7561 15.9465 19.5308 16.4465 19.3087 16.9479C19.0166 17.6044 18.7303 18.2633 18.4499 18.9248C18.1746 19.5773 17.8896 20.2511 17.6074 20.9498C17.3365 21.6123 17.0637 22.2973 16.7855 23.0008C16.5312 23.6454 16.282 24.2921 16.038 24.9408C16.0265 24.9708 16.0149 25.0054 16.0034 25.0354C15.7534 25.6951 15.5009 26.3736 15.2487 27.0679C15.244 27.0839 15.2371 27.098 15.2324 27.1164L16.4362 26.9845C16.413 26.9798 16.3874 26.9776 16.3643 26.973C17.8018 26.7948 19.7162 25.7183 20.9499 24.392C21.5193 23.7811 22.0355 23.0589 22.5124 22.2139C22.8662 21.5868 23.2025 20.8878 23.5215 20.117C23.8163 19.3959 24.0835 18.6638 24.3224 17.9223C23.9912 18.0961 23.614 18.2254 23.1974 18.3136C23.1234 18.3298 23.0493 18.3436 22.973 18.3573C22.8968 18.3713 22.8196 18.3829 22.7415 18.3923C22.7415 18.3923 22.7437 18.3923 22.7437 18.3901C24.0862 17.8739 24.9312 16.8786 25.5446 15.6589C25.1927 15.8995 24.6187 16.2142 23.9312 16.3645C23.8132 16.3902 23.6944 16.4119 23.5749 16.4295H23.5793C24.0468 16.2351 24.438 16.0151 24.7784 15.7583C24.8524 15.7026 24.9243 15.647 24.989 15.587C25.093 15.4964 25.1905 15.4017 25.2877 15.3045C25.3477 15.2398 25.4055 15.1748 25.4637 15.1076C25.598 14.9485 25.723 14.7765 25.8387 14.5917C25.873 14.5336 25.9105 14.4783 25.9427 14.4179C25.989 14.3323 26.0305 14.2467 26.0724 14.1658C26.2378 13.8364 26.3899 13.5005 26.5284 13.1589C26.5884 13.0108 26.6393 12.8764 26.6855 12.7467C26.7043 12.6958 26.7202 12.6473 26.7365 12.5986C26.7852 12.4573 26.8221 12.3323 26.8521 12.2214C26.8987 12.0545 26.9265 11.9226 26.9402 11.8276C26.894 11.8626 26.8434 11.8995 26.7827 11.9342C26.3777 12.1773 25.6834 12.3948 25.1234 12.4992C25.1162 12.5014 25.1071 12.5014 25.0977 12.5036C25.0399 12.5129 24.9868 12.5223 24.929 12.5292L24.9565 12.5151L21.1768 12.9295C21.1744 12.9433 21.1696 12.9566 21.1627 12.9689Z" fill="url(#paint5_linear_3021_100)"/>
<path d="M25.4176 5.33023C25.0404 5.91213 24.6739 6.50087 24.3182 7.09617C23.9256 7.75711 23.5428 8.42385 23.1701 9.09617C22.8195 9.73304 22.4769 10.3742 22.1423 11.0196C21.8155 11.6529 21.4953 12.2895 21.1816 12.9293L24.9616 12.5149C26.0635 12.008 26.5541 11.5521 27.031 10.8877C27.156 10.7049 27.2857 10.5152 27.4107 10.3159C27.8108 9.688 28.1809 9.04144 28.5195 8.37836C28.8479 7.73773 29.1373 7.10336 29.3595 6.5293C29.4887 6.20226 29.6 5.86843 29.6929 5.5293C29.7623 5.26773 29.8157 5.01773 29.8573 4.7793C28.392 5.03148 26.5888 5.27242 25.4176 5.33023Z" fill="url(#paint6_linear_3021_100)"/>
<path d="M22.9737 18.353C22.8975 18.3668 22.8203 18.3783 22.7422 18.3877C22.8209 18.3808 22.8994 18.3668 22.9734 18.353H22.9737Z" fill="#BD202E"/>
<path opacity="0.35" d="M22.9737 18.353C22.8975 18.3668 22.8203 18.3783 22.7422 18.3877C22.8209 18.3808 22.8994 18.3668 22.9734 18.353H22.9737Z" fill="#BD202E"/>
<path d="M22.9737 18.353C22.8975 18.3668 22.8203 18.3783 22.7422 18.3877C22.8209 18.3808 22.8997 18.3668 22.9737 18.353Z" fill="url(#paint7_linear_3021_100)"/>
<path d="M23.5781 16.4271C23.6013 16.4249 23.6266 16.4202 23.65 16.4155C23.6266 16.418 23.6034 16.4249 23.5781 16.4271Z" fill="#BD202E"/>
<path opacity="0.35" d="M23.5781 16.4271C23.6013 16.4249 23.6266 16.4202 23.65 16.4155C23.6266 16.418 23.6034 16.4249 23.5781 16.4271Z" fill="#BD202E"/>
<path d="M23.5781 16.4271C23.6013 16.4249 23.6266 16.4202 23.65 16.4155C23.6266 16.418 23.6034 16.4249 23.5781 16.4271Z" fill="url(#paint8_linear_3021_100)"/>
</g>
<defs>
<linearGradient id="paint0_linear_3021_100" x1="25.0873" y1="3.397" x2="33.4626" y2="1.06857" gradientUnits="userSpaceOnUse">
<stop stop-color="#F59723"/>
<stop offset="0.312" stop-color="#F69822"/>
<stop offset="0.838" stop-color="#E87726"/>
</linearGradient>
<linearGradient id="paint1_linear_3021_100" x1="6.7525" y1="40.9863" x2="23.7878" y2="4.45385" gradientUnits="userSpaceOnUse">
<stop offset="0.323" stop-color="#9C2063"/>
<stop offset="0.63" stop-color="#C82037"/>
<stop offset="0.751" stop-color="#CC2135"/>
<stop offset="1" stop-color="#E87726"/>
</linearGradient>
<linearGradient id="paint2_linear_3021_100" x1="12.4692" y1="38.2829" x2="22.6205" y2="16.5129" gradientUnits="userSpaceOnUse">
<stop stop-color="#282661"/>
<stop offset="0.095" stop-color="#662E8C"/>
<stop offset="0.788" stop-color="#9E2064"/>
<stop offset="0.949" stop-color="#CC2032"/>
</linearGradient>
<linearGradient id="paint3_linear_3021_100" x1="7.3682" y1="38.7743" x2="24.4035" y2="2.24182" gradientUnits="userSpaceOnUse">
<stop offset="0.323" stop-color="#9C2063"/>
<stop offset="0.63" stop-color="#C82037"/>
<stop offset="0.751" stop-color="#CC2135"/>
<stop offset="1" stop-color="#E87726"/>
</linearGradient>
<linearGradient id="paint4_linear_3021_100" x1="9.10562" y1="36.3414" x2="18.0581" y2="17.1424" gradientUnits="userSpaceOnUse">
<stop stop-color="#282661"/>
<stop offset="0.095" stop-color="#662E8C"/>
<stop offset="0.788" stop-color="#9E2064"/>
<stop offset="0.949" stop-color="#CC2032"/>
</linearGradient>
<linearGradient id="paint5_linear_3021_100" x1="11.1493" y1="40.5383" x2="28.1843" y2="4.00576" gradientUnits="userSpaceOnUse">
<stop offset="0.323" stop-color="#9C2063"/>
<stop offset="0.63" stop-color="#C82037"/>
<stop offset="0.751" stop-color="#CC2135"/>
<stop offset="1" stop-color="#E87726"/>
</linearGradient>
<linearGradient id="paint6_linear_3021_100" x1="9.90352" y1="42.7162" x2="26.9388" y2="6.18367" gradientUnits="userSpaceOnUse">
<stop offset="0.323" stop-color="#9C2063"/>
<stop offset="0.63" stop-color="#C82037"/>
<stop offset="0.751" stop-color="#CC2135"/>
<stop offset="1" stop-color="#E87726"/>
</linearGradient>
<linearGradient id="paint7_linear_3021_100" x1="12.2725" y1="41.0618" x2="29.3076" y2="4.52932" gradientUnits="userSpaceOnUse">
<stop offset="0.323" stop-color="#9C2063"/>
<stop offset="0.63" stop-color="#C82037"/>
<stop offset="0.751" stop-color="#CC2135"/>
<stop offset="1" stop-color="#E87726"/>
</linearGradient>
<linearGradient id="paint8_linear_3021_100" x1="12.1455" y1="41.0044" x2="29.1825" y2="4.46979" gradientUnits="userSpaceOnUse">
<stop offset="0.323" stop-color="#9C2063"/>
<stop offset="0.63" stop-color="#C82037"/>
<stop offset="0.751" stop-color="#CC2135"/>
<stop offset="1" stop-color="#E87726"/>
</linearGradient>
<clipPath id="clip0_3021_100">
<rect width="40" height="40" fill="white"/>
</clipPath>
</defs>
</svg>
