<svg width="40" height="40" viewBox="0 0 40 40" fill="none" xmlns="http://www.w3.org/2000/svg">
<g clip-path="url(#clip0_3021_235)">
<path d="M20 40C31.0457 40 40 31.0457 40 20C40 8.9543 31.0457 0 20 0C8.9543 0 0 8.9543 0 20C0 31.0457 8.9543 40 20 40Z" fill="url(#paint0_linear_3021_235)"/>
<path d="M29.2375 18.0904C29.2759 18.0498 29.3015 17.9987 29.3111 17.9437C29.3208 17.8886 29.314 17.8319 29.2917 17.7806C29.2694 17.7294 29.2326 17.6858 29.1857 17.6553C29.1388 17.6248 29.084 17.6088 29.0281 17.6091H20.2719C19.7375 17.6091 19.825 17.3216 20.0156 16.9716C20.2062 16.6185 25.05 7.78414 25.05 7.78414C25.0719 7.73727 25.0844 7.69039 25.0844 7.63727C25.0842 7.57072 25.0645 7.50568 25.0275 7.45031C24.9906 7.39495 24.9382 7.35171 24.8768 7.32602C24.8154 7.30032 24.7478 7.29332 24.6824 7.30588C24.6171 7.31845 24.5569 7.35002 24.5094 7.39664L10.7812 21.0779C10.7219 21.1341 10.6875 21.2091 10.6875 21.2966C10.6875 21.4623 10.8219 21.5966 10.9875 21.5966H20.3531C20.9406 21.5966 20.7312 21.9341 20.5875 22.131C20.4437 22.3279 13.3531 32.131 13.3531 32.131C13.3135 32.1834 13.2893 32.2457 13.2832 32.3111C13.2771 32.3764 13.2894 32.4422 13.3186 32.5009C13.3478 32.5597 13.3929 32.6091 13.4486 32.6437C13.5044 32.6783 13.5687 32.6966 13.6344 32.6966C13.7312 32.6966 13.8187 32.6591 13.8812 32.5966C13.9437 32.5341 29.2344 18.1029 29.2344 18.1029L29.2375 18.0998L29.2437 18.0935L29.2375 18.0904Z" fill="white"/>
</g>
<defs>
<linearGradient id="paint0_linear_3021_235" x1="20" y1="0" x2="20" y2="40" gradientUnits="userSpaceOnUse">
<stop stop-color="#7ACBD4"/>
<stop offset="1" stop-color="#29C6B7"/>
</linearGradient>
<clipPath id="clip0_3021_235">
<rect width="40" height="40" fill="white"/>
</clipPath>
</defs>
</svg>
