<svg width="32" height="40" viewBox="0 0 32 40" fill="none" xmlns="http://www.w3.org/2000/svg">
<g clip-path="url(#clip0_3021_144)">
<path d="M10.2292 39.887C7.70128 38.7559 5.98365 36.3195 5.75828 33.529C5.83135 32.1145 6.2339 30.7376 6.93303 29.5108C7.63217 28.284 8.60805 27.2421 9.7809 26.4704C9.39065 27.4342 9.4854 28.5314 10.0272 29.413C10.3283 29.8398 10.7456 30.1686 11.2282 30.3592C11.7108 30.5498 12.2377 30.594 12.7447 30.4865C14.2247 30.0651 15.0915 28.509 14.6754 27.009C14.5273 26.4828 14.2333 26.0107 13.8283 25.6486C13.0048 24.9701 12.3681 24.0878 11.9798 23.0872C11.5916 22.0866 11.4648 21.0014 11.6119 19.9367C11.9001 18.7855 12.5276 17.7504 13.4109 16.9691C12.7459 18.7647 14.6213 20.5365 15.8797 21.4081C18.1129 22.7652 20.2641 24.2562 22.3218 25.8732C24.5714 27.6687 25.7978 30.4792 25.6058 33.3546C25.0997 36.4144 22.962 38.9406 20.0488 39.8882C25.8767 38.5753 31.8854 33.887 31.9999 27.2373C31.8854 21.9168 28.7493 17.1424 23.9558 14.9678H23.7428C23.8493 15.2288 23.8997 15.5098 23.8905 15.792C23.9065 15.6095 23.9065 15.4259 23.8905 15.2434C23.9164 15.4587 23.9164 15.6764 23.8905 15.8918C23.526 17.4043 22.0189 18.3357 20.5217 17.9666C19.9233 17.817 19.3889 17.4767 19.0047 16.9853C17.0838 14.4916 19.0046 11.6537 19.326 8.91038C19.4235 7.18798 19.0904 5.46851 18.3576 3.91104C17.6248 2.35356 16.516 1.0084 15.1337 0C16.5385 2.37165 14.6669 5.48633 13.3063 7.25823C11.9433 9.03 9.97315 10.3505 8.36753 11.8966C6.63753 13.5263 5.05165 15.3181 3.62828 17.2333C0.551152 21.0401 -0.656723 26.0614 0.344277 30.8743C1.71728 35.5128 5.5244 38.9978 10.2194 39.9019H10.2453L10.2292 39.887Z" fill="#DD4814"/>
</g>
<defs>
<clipPath id="clip0_3021_144">
<rect width="32" height="40" fill="white"/>
</clipPath>
</defs>
</svg>
