<svg width="40" height="40" viewBox="0 0 40 40" fill="none" xmlns="http://www.w3.org/2000/svg">
<path d="M5.88016 35.6633L2.73828 0.422363H37.2633L34.1183 35.658L19.9798 39.5777L5.88016 35.6633Z" fill="#1572B6"/>
<path d="M20 36.5818L31.4247 33.4143L34.1125 3.30371H20V36.5818Z" fill="#33A9DC"/>
<path d="M20 16.0714H25.7194L26.1144 11.6454H20V7.32324H30.8381L30.7344 8.48293L29.6719 20.3936H20V16.0714Z" fill="white"/>
<path d="M20.0253 27.2964L20.0063 27.302L15.1928 26.0024L14.885 22.5552H10.5469L11.1522 29.3417L20.0056 31.7989L20.0253 31.7933V27.2964Z" fill="#EBEBEB"/>
<path d="M25.353 20.2109L24.8323 25.9991L20.0117 27.3003V31.7972L28.8723 29.3416L28.9373 28.6112L29.6892 20.2109H25.353Z" fill="white"/>
<path d="M20.0144 7.32324V11.6454H9.57437L9.48781 10.6742L9.29094 8.48293L9.1875 7.32324H20.0144ZM19.9997 16.072V20.3942H15.2469L15.1603 19.4229L14.9631 17.2317L14.86 16.072H19.9997Z" fill="#EBEBEB"/>
</svg>
