<svg width="40" height="40" viewBox="0 0 40 40" fill="none" xmlns="http://www.w3.org/2000/svg">
<g clip-path="url(#clip0_3021_214)">
<path d="M30.625 0H9.375C4.19733 0 0 4.19733 0 9.375V30.625C0 35.8027 4.19733 40 9.375 40H30.625C35.8027 40 40 35.8027 40 30.625V9.375C40 4.19733 35.8027 0 30.625 0Z" fill="#092E20"/>
<path d="M17.6077 7.96875H22.0788V28.6641C19.7852 29.0995 18.1012 29.2738 16.2723 29.2738C10.8139 29.2736 7.96875 26.8061 7.96875 22.0736C7.96875 17.5153 10.9883 14.5542 15.6625 14.5542C16.3883 14.5542 16.9398 14.612 17.6077 14.7863V7.96875ZM17.6077 18.3861C17.0852 18.2122 16.6497 18.1541 16.0981 18.1541C13.8336 18.1541 12.5269 19.5477 12.5269 21.9863C12.5269 24.3672 13.7755 25.6736 16.0691 25.6736C16.5623 25.6736 16.9691 25.6445 17.6077 25.5577V18.3861Z" fill="white"/>
<path d="M29.1911 14.8731V25.2375C29.1911 28.8088 28.9298 30.5216 28.1459 32.0023C27.42 33.4252 26.4619 34.325 24.4877 35.3122L20.3359 33.3378C22.3102 32.4089 23.2683 31.5962 23.8778 30.3473C24.5167 29.07 24.7202 27.5892 24.7202 23.6989V14.873L29.1911 14.8731ZM24.7202 7.99219H29.1911V12.5794H24.7202V7.99219Z" fill="white"/>
</g>
<defs>
<clipPath id="clip0_3021_214">
<rect width="40" height="40" fill="white"/>
</clipPath>
</defs>
</svg>
