<svg width="40" height="40" viewBox="0 0 40 40" fill="none" xmlns="http://www.w3.org/2000/svg">
<path d="M15 5H20V15H15C13.6739 15 12.4021 14.4732 11.4645 13.5355C10.5268 12.5979 10 11.3261 10 10C10 8.67392 10.5268 7.40215 11.4645 6.46447C12.4021 5.52678 13.6739 5 15 5Z" fill="#F4511E"/>
<path d="M25 15H20V5H25C26.3261 5 27.5979 5.52678 28.5355 6.46447C29.4732 7.40215 30 8.67392 30 10C30 11.3261 29.4732 12.5979 28.5355 13.5355C27.5979 14.4732 26.3261 15 25 15Z" fill="#FF8A65"/>
<path d="M20 20C20 22.7614 22.2386 25 25 25C27.7614 25 30 22.7614 30 20C30 17.2386 27.7614 15 25 15C22.2386 15 20 17.2386 20 20Z" fill="#29B6F6"/>
<path d="M15 15H20V25H15C13.6739 25 12.4021 24.4732 11.4645 23.5355C10.5268 22.5979 10 21.3261 10 20C10 18.6739 10.5268 17.4021 11.4645 16.4645C12.4021 15.5268 13.6739 15 15 15Z" fill="#7C4DFF"/>
<path d="M15 25H20V30C20 31.3261 19.4732 32.5979 18.5355 33.5355C17.5979 34.4732 16.3261 35 15 35C13.6739 35 12.4021 34.4732 11.4645 33.5355C10.5268 32.5979 10 31.3261 10 30C10 28.6739 10.5268 27.4021 11.4645 26.4645C12.4021 25.5268 13.6739 25 15 25Z" fill="#00E676"/>
</svg>
