<svg width="40" height="40" viewBox="0 0 40 40" fill="none" xmlns="http://www.w3.org/2000/svg">
<path d="M7.37711 34.0013L4.56836 2.5H35.4309L32.6184 33.9963L19.9809 37.5L7.37711 34.0013Z" fill="#E44F26"/>
<path d="M20 34.8224L30.2125 31.9912L32.615 5.07617H20V34.8224Z" fill="#F1662A"/>
<path d="M20 16.759H14.8875L14.535 12.8027H20V8.93896H10.3125L10.405 9.97646L11.3538 20.6227H20V16.759ZM20 26.7927L19.9825 26.7977L15.68 25.6365L15.405 22.5552H11.5262L12.0675 28.6202L19.9825 30.8177L20 30.8127V26.7927Z" fill="#EBEBEB"/>
<path d="M19.9863 16.759V20.6227H24.7438L24.2963 25.634L19.9863 26.7965V30.8165L27.9076 28.6202L27.9651 27.9677L28.8726 17.7965L28.9676 16.759H19.9863ZM19.9863 8.93896V12.8027H29.3188L29.3963 11.9352L29.5726 9.97646L29.6651 8.93896H19.9863Z" fill="white"/>
</svg>
