<svg width="40" height="40" viewBox="0 0 40 40" fill="none" xmlns="http://www.w3.org/2000/svg">
<path d="M39.9537 11.2079C39.9437 11.1704 39.925 11.1379 39.9113 11.1017C39.8877 11.0343 39.8584 10.969 39.8237 10.9067C39.7619 10.8169 39.6943 10.7313 39.6213 10.6504C39.5863 10.6183 39.5496 10.5883 39.5112 10.5604C39.4782 10.5302 39.4436 10.5019 39.4075 10.4754L39.3525 10.4504L39.3088 10.4204L31.8088 6.67041C31.6353 6.58371 31.444 6.53857 31.25 6.53857C31.056 6.53857 30.8647 6.58371 30.6912 6.67041L23.1912 10.4204L23.1475 10.4504L23.0925 10.4754C23.0564 10.5019 23.0218 10.5302 22.9888 10.5604C22.8962 10.6242 22.8169 10.7053 22.755 10.7992C22.7264 10.8335 22.6997 10.8694 22.675 10.9067C22.6407 10.9691 22.6119 11.0343 22.5887 11.1017C22.5762 11.1379 22.5563 11.1704 22.5463 11.2079C22.5161 11.3158 22.5005 11.4272 22.5 11.5392V18.2667L17.5 20.7667V6.53916C17.4995 6.42717 17.4839 6.31575 17.4538 6.20791C17.4438 6.17041 17.425 6.13791 17.4112 6.10166C17.3877 6.03428 17.3584 5.96904 17.3238 5.90666C17.2994 5.86945 17.2731 5.83356 17.245 5.79916C17.1831 5.7053 17.1038 5.62424 17.0113 5.56041C16.9782 5.53024 16.9436 5.50186 16.9075 5.47541L16.8525 5.45041L16.8087 5.42041L9.30875 1.67041C9.13525 1.58371 8.94396 1.53857 8.75 1.53857C8.55604 1.53857 8.36475 1.58371 8.19125 1.67041L0.69125 5.42041L0.6475 5.45041L0.5925 5.47541C0.55642 5.50186 0.521787 5.53024 0.48875 5.56041C0.450406 5.5883 0.41368 5.61834 0.37875 5.65041C0.333287 5.69667 0.291494 5.74641 0.25375 5.79916C0.225607 5.83356 0.19932 5.86945 0.175 5.90666C0.140749 5.96908 0.111894 6.03432 0.08875 6.10166C0.07625 6.13791 0.05625 6.17041 0.04625 6.20791C0.0160641 6.31575 0.000508236 6.42717 0 6.53916L0 30.2892C0.000123936 30.5212 0.0648538 30.7487 0.18694 30.9461C0.309027 31.1434 0.483649 31.3029 0.69125 31.4067L8.19125 35.1567L15.6913 38.9067C15.7088 38.9154 15.7287 38.9129 15.7487 38.9204C15.9045 38.9979 16.0761 39.0382 16.25 39.0382C16.4239 39.0382 16.5955 38.9979 16.7513 38.9204C16.77 38.9129 16.7912 38.9154 16.8087 38.9079L31.8088 31.4079C32.0165 31.3041 32.1913 31.1444 32.3134 30.9468C32.4355 30.7492 32.5001 30.5214 32.5 30.2892V23.5617L39.3088 20.1567C39.5164 20.0529 39.691 19.8934 39.8131 19.6961C39.9351 19.4987 39.9999 19.2712 40 19.0392V11.5392C39.9995 11.4272 39.9839 11.3158 39.9537 11.2079ZM11.545 26.5392L16.8087 23.9067H16.81L23.75 20.4367L28.455 22.7892L16.25 28.8917L11.545 26.5392ZM30 16.0617V20.7667L25 18.2667V13.5617L30 16.0617ZM31.25 9.18666L35.955 11.5392L31.25 13.8917L26.545 11.5392L31.25 9.18666ZM10 24.5167V11.0617L15 8.56166V22.0167L10 24.5167ZM8.75 4.18666L13.455 6.53916L8.75 8.89166L4.045 6.53916L8.75 4.18666ZM2.5 8.56166L7.5 11.0617V32.0167L2.5 29.5167V8.56166ZM10 28.5617L15 31.0617V35.7667L10 33.2667V28.5617ZM30 29.5167L17.5 35.7667V31.0617L30 24.8117V29.5167ZM37.5 18.2667L32.5 20.7667V16.0617L37.5 13.5617V18.2667Z" fill="#FF5252"/>
</svg>
