<svg width="46" height="40" viewBox="0 0 46 40" fill="none" xmlns="http://www.w3.org/2000/svg">
<g clip-path="url(#clip0_3021_210)">
<path d="M38.7714 27.2263C38.9657 27.1144 39.1273 26.9532 39.2399 26.7589C39.3525 26.5646 39.4121 26.344 39.4128 26.1193L39.4358 18.7043C39.4365 18.4796 39.4961 18.2589 39.6087 18.0646C39.7213 17.8702 39.8829 17.709 40.0773 17.5971L44.0858 15.2883C44.2801 15.1763 44.5003 15.1176 44.7243 15.1179C44.9484 15.1182 45.1684 15.1776 45.3623 15.2902C45.5563 15.4027 45.7173 15.5644 45.8292 15.759C45.9411 15.9537 46 16.1744 46 16.3991V29.8798C46 30.1052 45.9407 30.3266 45.8281 30.5217C45.7154 30.7168 45.5535 30.8786 45.3585 30.9908L30.2306 39.7038C30.0374 39.8151 29.8185 39.8737 29.5956 39.874C29.3727 39.8742 29.1537 39.8159 28.9602 39.705L17.0883 32.896C16.8927 32.7841 16.7301 32.6222 16.6169 32.4269C16.5038 32.2316 16.4442 32.0098 16.4441 31.784V24.9865C16.4441 24.9789 16.4531 24.9739 16.4608 24.9775C16.4671 24.9814 16.4761 24.9775 16.4761 24.9685V24.9609C16.4761 24.9558 16.4786 24.9506 16.4838 24.9481L26.2617 19.3155C26.2707 19.3103 26.2667 19.2962 26.2565 19.2962C26.2538 19.2962 26.2512 19.2951 26.2492 19.2932C26.2473 19.2913 26.2462 19.2887 26.2462 19.2859L26.2655 12.6218C26.2664 12.3964 26.208 12.1748 26.0962 11.9793C25.9844 11.7838 25.8232 11.6213 25.6288 11.5082C25.4344 11.3952 25.2137 11.3355 24.9889 11.3353C24.7642 11.3351 24.5434 11.3943 24.3487 11.507L17.0818 15.7061C16.8879 15.8181 16.668 15.8771 16.4442 15.8771C16.2204 15.8771 16.0005 15.8181 15.8066 15.7061L8.51665 11.4971C8.32245 11.3849 8.10222 11.3259 7.87809 11.326C7.65395 11.3261 7.43378 11.3854 7.2397 11.4978C7.04562 11.6102 6.88445 11.7718 6.77237 11.9665C6.66029 12.1611 6.60125 12.3819 6.60118 12.6067V24.651C6.6014 24.8755 6.54278 25.0961 6.43119 25.2908C6.3196 25.4854 6.15896 25.6472 5.96536 25.76C5.77176 25.8727 5.55201 25.9325 5.32812 25.9333C5.10422 25.9341 4.88405 25.8759 4.68967 25.7645L0.644002 23.4449C0.448086 23.3327 0.285294 23.1704 0.172177 22.9747C0.059061 22.779 -0.000344446 22.5567 1.50237e-06 22.3304L0.035939 1.27819C0.036458 1.05381 0.0957387 0.833504 0.207848 0.639318C0.319958 0.445132 0.480964 0.283878 0.674753 0.171694C0.868541 0.0595095 1.08832 0.000330115 1.31208 7.83745e-05C1.53585 -0.000173366 1.75575 0.0585113 1.94979 0.170259L15.8078 8.15116C16.0015 8.2627 16.2209 8.32139 16.4442 8.32139C16.6675 8.32139 16.8869 8.2627 17.0806 8.15116L30.9345 0.169899C31.1288 0.0578872 31.3491 -0.000875076 31.5733 -0.000486365C31.7975 -9.7654e-05 32.0176 0.0594283 32.2116 0.172113C32.4055 0.284799 32.5665 0.446676 32.6783 0.641488C32.7902 0.8363 32.8489 1.05719 32.8487 1.28197V22.3391C32.8488 22.5643 32.7897 22.7857 32.6774 22.9807C32.565 23.1758 32.4033 23.3377 32.2086 23.4501L24.9532 27.64C24.7583 27.7526 24.5965 27.9149 24.4842 28.1103C24.3719 28.3057 24.313 28.5274 24.3135 28.753C24.314 28.9785 24.3739 29.2 24.4871 29.3949C24.6003 29.5898 24.7628 29.7513 24.9582 29.8631L28.9604 32.1477C29.1538 32.2581 29.3726 32.316 29.5952 32.3155C29.8177 32.315 30.0363 32.2563 30.2292 32.145L38.7714 27.2263ZM39.6109 8.33711C39.611 8.56372 39.6711 8.78623 39.785 8.98195C39.8989 9.17767 40.0626 9.3396 40.2592 9.45122C40.4559 9.56284 40.6786 9.62016 40.9046 9.61733C41.1305 9.61451 41.3517 9.55163 41.5456 9.43512L45.379 7.12882C45.5682 7.01513 45.7249 6.85425 45.8337 6.66183C45.9426 6.46941 45.9998 6.25201 46 6.0308V1.3308C45.9996 1.1043 45.9394 0.881944 45.8254 0.686398C45.7114 0.490852 45.5477 0.329104 45.3511 0.217633C45.1544 0.106162 44.9319 0.0489529 44.706 0.0518357C44.4801 0.0547184 44.2591 0.11759 44.0653 0.234043L40.232 2.54035C40.0427 2.65403 39.886 2.81493 39.7772 3.00739C39.6683 3.19984 39.611 3.41729 39.6109 3.63855V8.33837V8.33711Z" fill="#007FFF"/>
</g>
<defs>
<clipPath id="clip0_3021_210">
<rect width="46" height="40" fill="white"/>
</clipPath>
</defs>
</svg>
