<svg width="40" height="40" viewBox="0 0 40 40" fill="none" xmlns="http://www.w3.org/2000/svg">
<g clip-path="url(#clip0_3021_82)">
<path d="M30.625 0H9.375C4.19733 0 0 4.19733 0 9.375V30.625C0 35.8027 4.19733 40 9.375 40H30.625C35.8027 40 40 35.8027 40 30.625V9.375C40 4.19733 35.8027 0 30.625 0Z" fill="#242938"/>
<mask id="mask0_3021_82" style="mask-type:luminance" maskUnits="userSpaceOnUse" x="5" y="5" width="30" height="30">
<path d="M5.9375 5.9375H34.0625V34.0625H5.9375V5.9375Z" fill="white"/>
</mask>
<g mask="url(#mask0_3021_82)">
<path fillRule="evenodd" clip-rule="evenodd" d="M31.8431 27.8453C30.3135 27.8028 29.1267 27.9595 28.1322 28.3779C27.8458 28.4929 27.3863 28.4929 27.3485 28.8534C27.5016 29.0046 27.52 29.2521 27.6542 29.4618C27.8835 29.8423 28.2856 30.3548 28.6488 30.6207L29.8728 31.4954C30.6188 31.9512 31.4603 32.2176 32.187 32.6739C32.608 32.9401 33.0286 33.2823 33.4495 33.5678C33.6639 33.7198 33.7938 33.9675 34.0617 34.062V34.0045C33.928 33.834 33.8894 33.587 33.7561 33.3961L33.1816 32.8451C32.6274 32.1039 31.9383 31.457 31.1924 30.9253C30.5802 30.507 29.2417 29.9368 28.993 29.2339L28.9553 29.1912C29.3755 29.1487 29.8728 29.0007 30.2749 28.8867C30.9256 28.7162 31.5181 28.7537 32.187 28.5828L33.1058 28.3165V28.1461C32.7614 27.804 32.5128 27.3476 32.1497 27.0248C31.1744 26.1884 30.1025 25.3707 28.993 24.6865C28.4002 24.3065 27.6349 24.0589 27.0038 23.7364C26.7736 23.6221 26.3916 23.5651 26.2578 23.3751C25.9127 22.9576 25.7219 22.4057 25.4733 21.9112L23.905 18.6037C23.5608 17.8623 23.3499 17.1209 22.9297 16.4367C20.9592 13.205 18.8166 11.2473 15.5266 9.32699C14.8192 8.92777 13.9777 8.75605 13.0828 8.5473L11.6485 8.47074C11.3419 8.33777 11.0361 7.97637 10.7683 7.80512C9.67799 7.12074 6.86611 5.63824 6.06205 7.59215C5.54564 8.82762 6.82752 10.044 7.26267 10.6717C7.58845 11.1089 8.00861 11.6029 8.23877 12.0973C8.36736 12.4203 8.41033 12.7628 8.54455 13.105C8.85017 13.9412 9.13736 14.8731 9.53908 15.6528C9.75345 16.052 9.97861 16.4707 10.2464 16.8317C10.3995 17.0446 10.6675 17.1359 10.7245 17.4779C10.4566 17.8584 10.4381 18.4281 10.285 18.904C9.59611 21.0521 9.86408 23.7134 10.8394 25.295C11.146 25.77 11.8683 26.8159 12.8485 26.4164C13.7092 26.0742 13.5172 24.9907 13.7658 24.0401C13.8236 23.8123 13.7852 23.6601 13.8995 23.5076V23.5503L14.6841 25.1279C15.277 26.0593 16.3103 27.029 17.1706 27.6757C17.6294 28.0179 17.993 28.6076 18.5666 28.8164V28.7589H18.5289C18.4139 28.5884 18.2416 28.5117 18.0886 28.3787C17.7444 28.0367 17.3619 27.6182 17.0939 27.2382C16.291 26.1739 15.5836 24.995 14.952 23.7786C14.6456 23.1893 14.3777 22.5429 14.1299 21.9537C14.0141 21.7254 14.0141 21.3828 13.8233 21.2695C13.536 21.687 13.116 22.0492 12.9045 22.5621C12.541 23.3793 12.5033 24.387 12.3695 25.4326C12.2924 25.4517 12.3266 25.4326 12.2924 25.4751C11.681 25.3236 11.47 24.6954 11.2408 24.1637C10.667 22.814 10.571 20.647 11.0683 19.0881C11.202 18.6889 11.7766 17.4342 11.5472 17.054C11.4316 16.6928 11.0499 16.484 10.8389 16.1986C10.5903 15.8373 10.3233 15.3814 10.151 14.9821C9.6922 13.917 9.46283 12.7389 8.96502 11.6743C8.73486 11.18 8.33361 10.6665 8.00814 10.2107C7.64455 9.6973 7.24377 9.3359 6.95658 8.72793C6.86095 8.51496 6.7272 8.17668 6.88017 7.94824C6.91799 7.79621 6.99502 7.73527 7.14736 7.70121C7.3958 7.48808 8.10424 7.75824 8.35283 7.87152C9.06017 8.15699 9.65314 8.42293 10.2461 8.82168C10.5141 9.01168 10.8013 9.37308 11.1455 9.46855H11.5477C12.1599 9.60137 12.848 9.51105 13.4211 9.68152C14.4352 10.0053 15.353 10.48 16.1761 10.9937C18.6816 12.5715 20.748 14.8146 22.1438 17.4954C22.3731 17.9326 22.4688 18.3318 22.6797 18.7881C23.0819 19.72 23.5792 20.6701 23.98 21.5831C24.3822 22.4765 24.7645 23.3896 25.3383 24.1309C25.6255 24.5301 26.7727 24.7389 27.2889 24.9481C27.6717 25.1186 28.2642 25.272 28.6094 25.4807C29.2592 25.88 29.9097 26.3362 30.5214 26.7734C30.827 27.0009 31.7841 27.4764 31.841 27.8556L31.8431 27.8453ZM12.3364 11.3261C12.0722 11.3238 11.8088 11.3557 11.5528 11.4211V11.4637H11.5905C11.7436 11.7679 12.0116 11.9771 12.2027 12.2434L12.643 13.1559L12.6808 13.1134C12.9486 12.9234 13.0828 12.6192 13.0828 12.1634C12.968 12.0304 12.9491 11.897 12.8535 11.764C12.7386 11.574 12.49 11.4786 12.3364 11.327V11.3261Z" fill="white"/>
</g>
</g>
<defs>
<clipPath id="clip0_3021_82">
<rect width="40" height="40" fill="white"/>
</clipPath>
</defs>
</svg>
