<svg width="40" height="40" viewBox="0 0 40 40" fill="none" xmlns="http://www.w3.org/2000/svg">
<g clip-path="url(#clip0_3021_123)">
<mask id="mask0_3021_123" style="mask-type:luminance" maskUnits="userSpaceOnUse" x="0" y="0" width="40" height="40">
<path d="M20 40C31.0457 40 40 31.0457 40 20C40 8.9543 31.0457 0 20 0C8.9543 0 0 8.9543 0 20C0 31.0457 8.9543 40 20 40Z" fill="white"/>
</mask>
<g mask="url(#mask0_3021_123)">
<path d="M20 40C31.0457 40 40 31.0457 40 20C40 8.9543 31.0457 0 20 0C8.9543 0 0 8.9543 0 20C0 31.0457 8.9543 40 20 40Z" fill="black"/>
<path d="M33.2221 35.0049L15.3629 12.0005H11.998V27.9938H14.6899V15.4192L31.109 36.6327C31.8488 36.1377 32.5547 35.5939 33.2221 35.0049Z" fill="url(#paint0_linear_3021_123)"/>
<path d="M25.5566 12.0005H28.2234V28.0005H25.5566V12.0005Z" fill="url(#paint1_linear_3021_123)"/>
</g>
</g>
<defs>
<linearGradient id="paint0_linear_3021_123" x1="1192.76" y1="1400.89" x2="1901.51" y2="2279.36" gradientUnits="userSpaceOnUse">
<stop stop-color="white"/>
<stop offset="1" stop-color="white" stop-opacity="0"/>
</linearGradient>
<linearGradient id="paint1_linear_3021_123" x1="158.893" y1="12.0005" x2="154.381" y2="1186.99" gradientUnits="userSpaceOnUse">
<stop stop-color="white"/>
<stop offset="1" stop-color="white" stop-opacity="0"/>
</linearGradient>
<clipPath id="clip0_3021_123">
<rect width="40" height="40" fill="white"/>
</clipPath>
</defs>
</svg>
