<svg width="35" height="40" viewBox="0 0 35 40" fill="none" xmlns="http://www.w3.org/2000/svg">
<g clip-path="url(#clip0_3021_152)">
<path d="M0.28082 29.9915C0.461289 30.3141 0.722012 30.5562 1.04303 30.7376L16.4871 39.6911C17.1289 40.0742 17.9111 40.0742 18.5329 39.6911L33.9771 30.7376C34.619 30.3747 35 29.6889 35 28.9428V11.0357C35 10.2896 34.619 9.60399 33.9771 9.2411L18.5329 0.287423C17.8912 -0.0958076 17.1088 -0.0958076 16.4871 0.287423L1.04316 9.2411C0.381035 9.60399 0 10.2896 0 11.0357V28.9629C0 29.326 0.0802539 29.6689 0.28082 29.9915Z" fill="#009639"/>
<path d="M12.5553 26.8253C12.5564 27.0878 12.5058 27.3479 12.4064 27.5906C12.307 27.8333 12.1607 28.0539 11.9761 28.2395C11.7915 28.4251 11.5722 28.5721 11.3308 28.672C11.0894 28.772 10.8306 28.8228 10.5696 28.8217C10.3085 28.8228 10.0498 28.7719 9.80841 28.672C9.56701 28.572 9.34769 28.425 9.16309 28.2394C8.9785 28.0538 8.83229 27.8333 8.73289 27.5906C8.6335 27.3479 8.5829 27.0878 8.584 26.8253V13.1329C8.584 12.0641 9.52668 11.197 10.8303 11.197C11.7731 11.197 12.8763 11.5801 13.5381 12.4069L14.1397 13.1329L22.4436 23.1148V13.1732C22.4425 12.9107 22.4931 12.6506 22.5925 12.4079C22.6919 12.1652 22.8381 11.9446 23.0227 11.759C23.2073 11.5734 23.4267 11.4264 23.6681 11.3265C23.9095 11.2265 24.1682 11.1757 24.4293 11.1768C24.6904 11.1757 24.9491 11.2266 25.1905 11.3265C25.4319 11.4265 25.6512 11.5735 25.8358 11.7591C26.0204 11.9447 26.1666 12.1652 26.266 12.4079C26.3654 12.6506 26.416 12.9107 26.4149 13.1732V26.8657C26.4149 27.9344 25.4722 28.8015 24.1686 28.8015C23.2258 28.8015 22.1226 28.4184 21.4607 27.5916L12.5553 16.9038V26.8253Z" fill="white"/>
</g>
<defs>
<clipPath id="clip0_3021_152">
<rect width="35" height="40" fill="white"/>
</clipPath>
</defs>
</svg>
