<svg width="35" height="40" viewBox="0 0 35 40" fill="none" xmlns="http://www.w3.org/2000/svg">
<g clip-path="url(#clip0_3021_148)">
<path d="M17.5 39.9404C16.9565 39.9404 16.4493 39.7937 15.9783 39.5369L11.1594 36.6392C10.4348 36.2358 10.7971 36.089 11.0145 36.0157C11.9927 35.6856 12.1738 35.6122 13.1883 35.0252C13.2971 34.9519 13.4421 34.9886 13.5506 35.0619L17.2464 37.2994C17.3913 37.3728 17.5725 37.3728 17.6812 37.2994L32.1378 28.8265C32.2827 28.7531 32.3552 28.6064 32.3552 28.423V11.5135C32.3552 11.3301 32.2827 11.1834 32.1378 11.1101L17.6812 2.67368C17.5362 2.60032 17.3551 2.60032 17.2464 2.67368L2.78975 11.1102C2.64482 11.1836 2.57236 11.367 2.57236 11.5137V28.423C2.57236 28.5697 2.64482 28.7531 2.78975 28.8265L6.73914 31.1372C8.87687 32.2376 10.2173 30.9538 10.2173 29.6701V12.9807C10.2173 12.7606 10.3986 12.5405 10.6522 12.5405H12.5001C12.7174 12.5405 12.9348 12.7239 12.9348 12.9807V29.6699C12.9348 32.5677 11.3768 34.2549 8.65936 34.2549C7.82605 34.2549 7.17391 34.2549 5.32615 33.3379L1.52168 31.1372C0.579688 30.5869 0 29.5599 0 28.4596V11.5504C0 10.45 0.579688 9.42302 1.52168 8.87271L15.9783 0.39977C16.8841 -0.113725 18.1159 -0.113725 19.0217 0.39977L33.4783 8.87271C34.4203 9.42288 35 10.4499 35 11.5504V28.4597C35 29.56 34.4203 30.587 33.4783 31.1372L19.0217 39.6104C18.5507 39.8305 18.0072 39.9405 17.5 39.9405M21.9565 28.313C15.6159 28.313 14.3116 25.3787 14.3116 22.8845C14.3116 22.6644 14.4927 22.4443 14.7463 22.4443H16.6303C16.8477 22.4443 17.029 22.591 17.029 22.8111C17.3188 24.7551 18.1521 25.7088 21.9927 25.7088C25.0362 25.7088 26.3406 25.0119 26.3406 23.3614C26.3406 22.4077 25.9783 21.7108 21.2319 21.2338C17.2826 20.8304 14.8188 19.9501 14.8188 16.7591C14.8188 13.7879 17.2825 12.0273 21.413 12.0273C26.0507 12.0273 28.3333 13.6412 28.6232 17.1624C28.6232 17.2725 28.5869 17.3825 28.5145 17.4925C28.442 17.5659 28.3333 17.6392 28.2246 17.6392H26.3406C26.1594 17.6392 25.9783 17.4925 25.942 17.3091C25.5072 15.2918 24.3841 14.6316 21.413 14.6316C18.0798 14.6316 17.6812 15.8053 17.6812 16.6856C17.6812 17.7494 18.1521 18.0794 22.6449 18.6662C27.1015 19.2531 29.2029 20.0968 29.2029 23.2513C29.1666 26.4791 26.558 28.313 21.9565 28.313Z" fill="#539E43"/>
</g>
<defs>
<clipPath id="clip0_3021_148">
<rect width="35" height="40" fill="white"/>
</clipPath>
</defs>
</svg>
