<svg width="40" height="40" viewBox="0 0 40 40" fill="none" xmlns="http://www.w3.org/2000/svg">
<path d="M0 19.9999C0 25.8103 8.95437 30.5209 20 30.5209C31.0456 30.5209 40 25.8103 40 19.9999C40 14.1896 31.0453 9.479 20 9.479C8.95469 9.479 0 14.1896 0 19.9999Z" fill="url(#paint0_radial_3021_133)"/>
<path d="M20 29.7396C30.6141 29.7396 39.2188 25.3787 39.2188 19.9999C39.2188 14.6206 30.6141 10.2603 20 10.2603C9.38594 10.2603 0.78125 14.6206 0.78125 19.9999C0.78125 25.3787 9.38594 29.7396 20 29.7396Z" fill="#777BB3"/>
<path d="M10.8667 21.2076C11.7395 21.2076 12.3907 21.0467 12.8029 20.7295C13.211 20.4151 13.4926 19.871 13.6404 19.1123C13.7779 18.4029 13.7254 17.9079 13.4842 17.6404C13.2379 17.3673 12.7051 17.2288 11.9007 17.2288H10.5057L9.73291 21.2076H10.8667ZM6.30447 26.1085C6.27247 26.1085 6.24087 26.1014 6.21194 26.0877C6.18301 26.074 6.15748 26.054 6.13717 26.0293C6.11685 26.0046 6.10227 25.9756 6.09445 25.9446C6.08664 25.9136 6.08579 25.8812 6.09197 25.8498L8.14103 15.3067C8.15072 15.2574 8.17719 15.213 8.21593 15.181C8.25468 15.149 8.30331 15.1315 8.35353 15.1313H12.7704C14.1585 15.1313 15.1917 15.5082 15.8413 16.2517C16.4938 16.9985 16.6957 18.0435 16.4404 19.3563C16.3363 19.891 16.1576 20.3876 15.9092 20.8326C15.6506 21.2904 15.3206 21.7039 14.9317 22.0576C14.4532 22.5051 13.9117 22.8301 13.3232 23.021C12.7445 23.2098 12.0007 23.3054 11.1138 23.3054H9.3251L8.81447 25.9329C8.80483 25.9824 8.7783 26.0269 8.73942 26.059C8.70054 26.091 8.65173 26.1085 8.60135 26.1085H6.30447Z" fill="black"/>
<path d="M10.6852 17.4456H11.9011C12.8721 17.4456 13.2093 17.6588 13.3239 17.7859C13.5136 17.9966 13.5499 18.4413 13.4274 19.0709C13.2902 19.7763 13.0358 20.2766 12.6711 20.5572C12.298 20.8447 11.6905 20.9903 10.8671 20.9903H9.99644L10.6852 17.4456ZM12.7708 14.9144H8.35425C8.25354 14.9144 8.15595 14.9494 8.0782 15.0134C8.00044 15.0774 7.94735 15.1665 7.928 15.2653L5.87894 25.8087C5.86684 25.8716 5.86876 25.9363 5.88455 25.9982C5.90035 26.0602 5.92964 26.1179 5.97033 26.1673C6.01102 26.2166 6.06211 26.2564 6.11994 26.2837C6.17777 26.311 6.24092 26.3252 6.30488 26.3253H8.60175C8.70246 26.3252 8.80001 26.2901 8.8777 26.2261C8.9554 26.162 9.00842 26.0729 9.02769 25.9741L9.50425 23.5222H11.1139C12.0239 23.5222 12.7902 23.4228 13.3911 23.2272C14.0089 23.0266 14.5774 22.6862 15.0805 22.2156C15.4857 21.8467 15.8295 21.4156 16.0989 20.9384C16.3586 20.4737 16.5455 19.955 16.6536 19.3975C16.9224 18.0153 16.7039 16.9088 16.0049 16.1088C15.3124 15.3159 14.2243 14.9141 12.7708 14.9141V14.9144ZM9.46988 21.4241H10.8671C11.7931 21.4243 12.4827 21.2498 12.9358 20.9006C13.3889 20.5519 13.695 19.9695 13.8539 19.1534C14.0056 18.3697 13.9363 17.8168 13.6461 17.4947C13.3555 17.1726 12.7738 17.0116 11.9011 17.0116H10.3274L9.46988 21.4241ZM12.7711 15.3475C14.0999 15.3475 15.0689 15.6963 15.6783 16.3938C16.2877 17.0913 16.471 18.0648 16.2283 19.3144C16.1279 19.8294 15.9586 20.3 15.7205 20.7262C15.482 21.1529 15.1704 21.5432 14.7858 21.8972C14.3275 22.3264 13.8179 22.6321 13.2571 22.8144C12.6964 22.9969 11.9822 23.088 11.1143 23.0878H9.14675L8.60207 25.8909H6.30519L8.35457 15.3475H12.7711Z" fill="white"/>
<path d="M21.7066 23.3053C21.6746 23.3054 21.643 23.2983 21.614 23.2847C21.585 23.271 21.5594 23.2511 21.539 23.2264C21.5187 23.2017 21.504 23.1728 21.4961 23.1418C21.4883 23.1107 21.4874 23.0783 21.4935 23.0469L22.3998 18.3819C22.4863 17.9381 22.4651 17.62 22.3404 17.485C22.2638 17.4028 22.0344 17.265 21.356 17.265H19.7135L18.5741 23.13C18.5643 23.1794 18.5377 23.2238 18.4988 23.2558C18.4598 23.2877 18.411 23.3051 18.3607 23.305H16.0826C16.0506 23.305 16.019 23.298 15.99 23.2843C15.961 23.2707 15.9354 23.2509 15.915 23.2262C15.8946 23.2015 15.88 23.1727 15.872 23.1417C15.8641 23.1107 15.8631 23.0783 15.8691 23.0469L17.9185 12.5034C17.9282 12.454 17.9548 12.4096 17.9936 12.3776C18.0325 12.3456 18.0813 12.3281 18.1316 12.3281H20.4098C20.4418 12.3281 20.4734 12.3352 20.5023 12.3488C20.5313 12.3624 20.5569 12.3822 20.5773 12.4069C20.5977 12.4316 20.6124 12.4604 20.6203 12.4914C20.6282 12.5224 20.6292 12.5548 20.6232 12.5863L20.1288 15.1312H21.8954C23.2413 15.1312 24.1538 15.3681 24.6854 15.8566C25.2269 16.3544 25.3963 17.1503 25.1879 18.2231L24.2344 23.13C24.2247 23.1793 24.1981 23.2237 24.1592 23.2557C24.1203 23.2876 24.0716 23.305 24.0213 23.305L21.7066 23.3053Z" fill="black"/>
<path d="M20.4101 12.1108H18.1317C18.0309 12.1109 17.9333 12.1459 17.8555 12.21C17.7778 12.2741 17.7247 12.3632 17.7054 12.4621L15.6563 23.0052C15.6442 23.068 15.6461 23.1328 15.6618 23.1948C15.6776 23.2568 15.7069 23.3146 15.7476 23.364C15.7883 23.4133 15.8394 23.4531 15.8972 23.4805C15.9551 23.5078 16.0183 23.522 16.0823 23.5221H18.3607C18.4615 23.5221 18.5591 23.487 18.6369 23.4229C18.7146 23.3589 18.7677 23.2697 18.787 23.1708L19.8923 17.4818H21.3554C22.0329 17.4818 22.1754 17.6265 22.1807 17.633C22.222 17.6768 22.276 17.8815 22.1867 18.3405L21.2804 23.0052C21.2682 23.0681 21.2701 23.1328 21.2859 23.1949C21.3017 23.2569 21.331 23.3147 21.3718 23.3641C21.4125 23.4135 21.4636 23.4532 21.5215 23.4806C21.5794 23.5079 21.6426 23.5221 21.7067 23.5221H24.0217C24.1224 23.522 24.2199 23.4869 24.2976 23.4228C24.3753 23.3588 24.4283 23.2697 24.4476 23.1708L25.401 18.2646C25.6245 17.1127 25.4332 16.249 24.8323 15.6968C24.2585 15.1699 23.2979 14.914 21.8954 14.914H20.3923L20.8363 12.628C20.8486 12.5652 20.8467 12.5004 20.8309 12.4383C20.8152 12.3762 20.7859 12.3184 20.7451 12.269C20.7044 12.2195 20.6532 12.1797 20.5953 12.1524C20.5374 12.125 20.4741 12.1109 20.4101 12.1108ZM20.4101 12.5452L19.8654 15.3477H21.8954C23.1727 15.3477 24.0536 15.5706 24.5382 16.0165C25.0232 16.4619 25.1688 17.1838 24.9751 18.1821L24.0213 23.088H21.7067L22.6132 18.423C22.7163 17.8924 22.6783 17.5305 22.4992 17.3374C22.32 17.1445 21.9389 17.048 21.356 17.048H19.5345L18.3607 23.0877H16.082L18.1313 12.5443H20.4101V12.5452Z" fill="white"/>
<path d="M28.7921 21.2076C29.6649 21.2076 30.3165 21.0467 30.729 20.7295C31.1365 20.4151 31.4184 19.871 31.5662 19.1123C31.7037 18.4029 31.6515 17.9079 31.4099 17.6404C31.1637 17.3673 30.6309 17.2288 29.8265 17.2288H28.4318L27.6584 21.2076H28.7921ZM24.2309 26.1085C24.1988 26.1086 24.1671 26.1015 24.1381 26.0879C24.1091 26.0742 24.0835 26.0543 24.0631 26.0295C24.0428 26.0048 24.0281 25.9758 24.0203 25.9448C24.0124 25.9137 24.0116 25.8812 24.0178 25.8498L26.0668 15.3067C26.0765 15.2573 26.1031 15.2128 26.142 15.1808C26.1808 15.1488 26.2296 15.1313 26.2799 15.1313H30.6965C32.0846 15.1313 33.1178 15.5082 33.7671 16.2517C34.4199 16.9985 34.6215 18.0435 34.3662 19.3563C34.2685 19.8734 34.0893 20.3717 33.8353 20.8326C33.5767 21.2904 33.2467 21.7039 32.8578 22.0576C32.3796 22.5051 31.8374 22.8301 31.2493 23.021C30.6706 23.2098 29.9268 23.3054 29.0396 23.3054H27.2512L26.7409 25.9329C26.7312 25.9824 26.7046 26.027 26.6657 26.0591C26.6268 26.0911 26.5779 26.1086 26.5274 26.1085H24.2309Z" fill="black"/>
<path d="M28.611 17.4456H29.8269C30.7978 17.4456 31.135 17.6588 31.2494 17.7859C31.44 17.9966 31.4757 18.4413 31.3535 19.0709C31.216 19.7763 30.9616 20.2766 30.5969 20.5572C30.2235 20.8447 29.616 20.9903 28.7928 20.9903H27.9222L28.611 17.4456ZM30.6966 14.9144H26.28C26.1794 14.9145 26.0819 14.9495 26.0042 15.0135C25.9265 15.0775 25.8734 15.1665 25.8541 15.2653L23.8047 25.8087C23.7926 25.8716 23.7945 25.9363 23.8104 25.9983C23.8262 26.0603 23.8555 26.118 23.8962 26.1674C23.9369 26.2168 23.9881 26.2565 24.0459 26.2838C24.1038 26.3111 24.167 26.3253 24.231 26.3253H26.5278C26.6286 26.3252 26.7261 26.2901 26.8038 26.2261C26.8815 26.162 26.9345 26.0729 26.9538 25.9741L27.4303 23.5222H29.0397C29.9494 23.5222 30.716 23.4228 31.3166 23.2272C31.9347 23.0266 32.5032 22.6862 33.0066 22.2153C33.4116 21.8465 33.7553 21.4154 34.0247 20.9384C34.2847 20.4737 34.471 19.955 34.5794 19.3975C34.8482 18.0153 34.63 16.9088 33.9307 16.1088C33.2382 15.3159 32.1503 14.9141 30.6963 14.9141L30.6966 14.9144ZM27.3957 21.4241H28.7925C29.7186 21.4243 30.4084 21.2498 30.8619 20.9006C31.315 20.5519 31.6209 19.9695 31.7794 19.1534C31.9317 18.3697 31.8624 17.8168 31.5716 17.4947C31.2808 17.1726 30.6992 17.0116 29.8269 17.0116H28.2535L27.3957 21.4241ZM30.6966 15.3475C32.0253 15.3475 32.9944 15.6963 33.6038 16.3938C34.2132 17.0913 34.3964 18.0648 34.1535 19.3144C34.0535 19.8294 33.8843 20.3 33.646 20.7262C33.4076 21.1529 33.096 21.5432 32.711 21.8972C32.2526 22.3264 31.7431 22.6321 31.1822 22.8144C30.6218 22.9969 29.9076 23.088 29.0397 23.0878H27.0725L26.5272 25.8909H24.2303L26.2797 15.3475H30.6966Z" fill="white"/>
<defs>
<radialGradient id="paint0_radial_3021_133" cx="0" cy="0" r="1" gradientUnits="userSpaceOnUse" gradientTransform="translate(12.0081 13.1778) scale(26.2629 26.2629)">
<stop stop-color="#AEB2D5"/>
<stop offset="0.3" stop-color="#AEB2D5"/>
<stop offset="0.75" stop-color="#484C89"/>
<stop offset="1" stop-color="#484C89"/>
</radialGradient>
</defs>
</svg>
