<svg width="40" height="40" viewBox="0 0 40 40" fill="none" xmlns="http://www.w3.org/2000/svg">
<path d="M19.8098 3.8274C18.4904 3.83365 17.231 3.94583 16.1223 4.14208C12.8566 4.71896 12.2641 5.92646 12.2641 8.15365V11.0946H19.9807V12.0749H9.36788C7.12538 12.0749 5.16163 13.4227 4.54725 15.9877C3.8385 18.9268 3.80725 20.7611 4.54725 23.8302C5.09569 26.1149 6.40569 27.7424 8.6485 27.7424H11.3019V24.2168C11.3019 21.6696 13.5054 19.423 16.1226 19.423H23.8304C25.976 19.423 27.6885 17.6561 27.6885 15.5018V8.15396C27.6885 6.0624 25.9241 4.49146 23.8304 4.1424C22.5041 3.92177 21.1288 3.82146 19.8098 3.8274ZM15.6366 6.19271C16.4335 6.19271 17.0848 6.85427 17.0848 7.66802C17.0848 8.47833 16.4338 9.13365 15.6366 9.13365C14.8366 9.13365 14.1888 8.47833 14.1888 7.66802C14.1885 6.85427 14.8366 6.19271 15.6366 6.19271Z" fill="url(#paint0_linear_3021_172)"/>
<path d="M28.6502 12.075V15.5019C28.6502 18.1581 26.3977 20.3941 23.8296 20.3941H16.1218C14.0105 20.3941 12.2637 22.2013 12.2637 24.3156V31.6641C12.2637 33.755 14.0818 34.9853 16.1218 35.585C18.5643 36.3028 20.9068 36.4328 23.8296 35.585C25.7721 35.0222 27.6877 33.8903 27.6877 31.6641V28.7228H19.9802V27.7422H31.5465C33.789 27.7422 34.6252 26.1781 35.4052 23.83C36.2109 21.4128 36.1762 19.0881 35.4052 15.9875C34.8509 13.7547 33.7924 12.0747 31.5465 12.0747L28.6502 12.075ZM24.3149 30.6835C25.1152 30.6835 25.763 31.3388 25.763 32.1497C25.763 32.9628 25.1149 33.6244 24.3149 33.6244C23.518 33.6244 22.8671 32.9628 22.8671 32.1497C22.8671 31.3388 23.518 30.6835 24.3149 30.6835Z" fill="url(#paint1_linear_3021_172)"/>
<path opacity="0.444" d="M30.4087 37.374C30.4087 38.4812 25.7788 39.379 20.0678 39.379C14.3566 39.379 9.72656 38.4812 9.72656 37.374C9.72656 36.2668 14.3563 35.3687 20.0678 35.3687C25.7788 35.3687 30.4087 36.2662 30.4087 37.374Z" fill="url(#paint2_radial_3021_172)"/>
<defs>
<linearGradient id="paint0_linear_3021_172" x1="3.23034" y1="4.74697" x2="21.0284" y2="19.9251" gradientUnits="userSpaceOnUse">
<stop stop-color="#5A9FD4"/>
<stop offset="1" stop-color="#306998"/>
</linearGradient>
<linearGradient id="paint1_linear_3021_172" x1="27.7243" y1="29.3601" x2="21.3416" y2="20.4095" gradientUnits="userSpaceOnUse">
<stop stop-color="#FFD43B"/>
<stop offset="1" stop-color="#FFE873"/>
</linearGradient>
<radialGradient id="paint2_radial_3021_172" cx="0" cy="0" r="1" gradientUnits="userSpaceOnUse" gradientTransform="translate(20.026 37.3166) rotate(-90) scale(2.00572 8.81683)">
<stop stop-color="#B8B8B8" stop-opacity="0.498"/>
<stop offset="1" stop-color="#7F7F7F" stop-opacity="0"/>
</radialGradient>
</defs>
</svg>
