<svg width="40" height="40" viewBox="0 0 40 40" fill="none" xmlns="http://www.w3.org/2000/svg">
<path d="M20 23.1055C21.7259 23.1055 23.125 21.7064 23.125 19.9805C23.125 18.2546 21.7259 16.8555 20 16.8555C18.2741 16.8555 16.875 18.2546 16.875 19.9805C16.875 21.7064 18.2741 23.1055 20 23.1055Z" fill="#00D8FF"/>
<path d="M20 27.1315C16.2439 27.222 12.4973 26.7157 8.9 25.6315C7.23828 25.1047 5.68842 24.2749 4.32875 23.184C3.80973 22.8115 3.37753 22.331 3.06185 21.7756C2.74617 21.2202 2.55449 20.603 2.5 19.9665C2.5 17.9002 4.77 15.8752 8.5725 14.5502C12.2661 13.3771 16.125 12.8081 20 12.8652C23.8233 12.8124 27.6306 13.3711 31.2775 14.5202C32.8776 15.031 34.3748 15.8207 35.7 16.8527C36.2094 17.2086 36.6346 17.6718 36.9456 18.2098C37.2566 18.7478 37.4458 19.3474 37.5 19.9665C37.5 22.114 34.9625 24.2902 30.875 25.6427C27.3474 26.6919 23.6798 27.194 20 27.1315ZM20 14.3602C16.2927 14.3118 12.6013 14.8527 9.06375 15.9627C5.56375 17.184 3.995 18.854 3.995 19.9627C3.995 21.1227 5.68125 22.9465 9.38375 24.2127C12.825 25.2453 16.4083 25.7258 20 25.6365C23.5205 25.6994 27.0299 25.2231 30.4063 24.224C34.25 22.9502 36 21.124 36 19.9665C35.9367 19.5693 35.7919 19.1896 35.5746 18.8512C35.3573 18.5128 35.0723 18.2231 34.7375 18.0002C33.5521 17.0843 32.2146 16.3844 30.7862 15.9327C27.2974 14.8382 23.6562 14.3074 20 14.3602Z" fill="#00D8FF"/>
<path d="M12.8995 35.5573C12.3164 35.5706 11.7402 35.4292 11.2295 35.1473C9.43951 34.1148 8.81951 31.1373 9.57076 27.1811C10.4 23.3952 11.8352 19.7681 13.8208 16.4398C15.6846 13.1015 18.0701 10.0826 20.887 7.49731C22.1288 6.36619 23.5609 5.46355 25.117 4.83106C25.6802 4.56798 26.2942 4.43164 26.9158 4.43164C27.5373 4.43164 28.1514 4.56798 28.7145 4.83106C30.5758 5.90356 31.192 9.18856 30.3233 13.4048C29.4695 16.9855 28.0716 20.4142 26.1783 23.5711C24.3802 26.8701 22.0697 29.8627 19.3333 32.4373C18.0467 33.6133 16.5537 34.541 14.9295 35.1736C14.2795 35.4155 13.593 35.5453 12.8995 35.5573ZM15.1158 17.1823C13.2219 20.3695 11.8464 23.8373 11.0408 27.4561C10.3495 31.0998 11.0133 33.2911 11.9783 33.8486C12.9783 34.4273 15.4058 33.8786 18.3533 31.3036C20.9659 28.8374 23.1712 25.9727 24.887 22.8161C26.7007 19.798 28.0416 16.52 28.8633 13.0961C29.6808 9.12731 28.9745 6.69731 27.972 6.11981C27.5962 5.97606 27.1947 5.91174 26.7929 5.93089C26.391 5.95003 25.9974 6.05224 25.637 6.23106C24.2517 6.80288 22.978 7.61447 21.8745 8.62856C19.1834 11.1051 16.9048 13.9952 15.1245 17.1898L15.1158 17.1823Z" fill="#00D8FF"/>
<path d="M27.0946 35.5617C25.4009 35.5617 23.2496 34.5367 21.0096 32.6104C18.1437 30.0014 15.7179 26.9466 13.8259 23.5642C11.8648 20.2819 10.441 16.7072 9.60838 12.9754C9.24815 11.3335 9.18129 9.64069 9.41088 7.97542C9.46487 7.35787 9.65329 6.75961 9.96293 6.22258C10.2726 5.68556 10.696 5.22277 11.2034 4.86667C13.0621 3.79042 16.2159 4.89667 19.4346 7.75417C22.1104 10.2819 24.3826 13.2051 26.1721 16.4217C28.1322 19.6273 29.5709 23.1237 30.4346 26.7804C30.811 28.4826 30.8691 30.2397 30.6059 31.9629C30.5435 32.5985 30.3443 33.213 30.0219 33.7643C29.6996 34.3156 29.2617 34.7906 28.7384 35.1567C28.2359 35.4345 27.6687 35.5743 27.0946 35.5617ZM15.1196 22.8117C16.9348 26.0441 19.252 28.9676 21.9846 31.4729C24.7959 33.8917 27.0259 34.4117 27.9846 33.8479C28.9846 33.2667 29.7221 30.8942 28.9621 27.0554C28.1297 23.564 26.7497 20.2264 24.8734 17.1667C23.1657 14.0881 20.9968 11.289 18.4421 8.86667C15.4121 6.17667 12.9546 5.57542 11.9534 6.15542C11.6415 6.40918 11.3855 6.72477 11.2016 7.08231C11.0176 7.43986 10.9097 7.83162 10.8846 8.23292C10.686 9.71804 10.7508 11.2265 11.0759 12.6892C11.877 16.2579 13.2425 19.6759 15.1209 22.8142L15.1196 22.8117Z" fill="#00D8FF"/>
</svg>
