<svg width="40" height="40" viewBox="0 0 40 40" fill="none" xmlns="http://www.w3.org/2000/svg">
<g clip-path="url(#clip0_3021_74)">
<path d="M20.002 8.00049C14.6685 8.00049 11.3363 10.6661 10.002 15.9996C12.0013 13.3336 14.3354 12.3339 17.0013 13.0005C18.5235 13.3799 19.6113 14.4836 20.816 15.7067C22.7766 17.6964 25.046 19.9999 30.002 19.9999C35.3351 19.9999 38.6676 17.3339 40.002 11.9992C38.002 14.6665 35.6687 15.6667 33.0023 14.9999C31.4804 14.6202 30.3938 13.5167 29.1876 12.2936C27.2282 10.3039 24.9595 8.00049 20.002 8.00049ZM10.002 19.9999C4.66883 19.9999 1.33633 22.6658 0.00195312 28.0005C2.00174 25.3332 4.33487 24.333 7.00133 24.9999C8.52352 25.3796 9.61133 26.483 10.816 27.7061C12.7766 29.6958 15.046 31.9992 20.002 31.9992C25.3351 31.9992 28.6676 29.3336 30.002 24.0002C28.002 26.6662 25.6687 27.6659 23.0023 26.9992C21.4804 26.6199 20.3938 25.5161 19.1876 24.293C17.2282 22.3033 14.9595 19.9999 10.002 19.9999Z" fill="#38BDF8"/>
</g>
<defs>
<clipPath id="clip0_3021_74">
<rect width="40" height="40" fill="white"/>
</clipPath>
</defs>
</svg>
