<svg width="284" height="250" viewBox="0 0 284 250" fill="none" xmlns="http://www.w3.org/2000/svg">
<g clip-path="url(#clip0_3020_62)">
<mask id="mask0_3020_62" style="mask-type:alpha" maskUnits="userSpaceOnUse" x="-1" y="-1" width="286" height="252">
<path d="M12.71 126.428C19.8348 123.969 27.7768 123.459 34.7666 126.528C38.4212 128.558 41.1507 130.655 44.2109 133.483C45.2492 134.443 46.2877 135.403 47.3574 136.392C52.5744 141.358 57.6913 146.417 62.7725 151.522C63.8772 152.628 64.9819 153.733 66.1201 154.871C69.0149 157.767 71.9065 160.666 74.7969 163.566C77.7639 166.542 80.7349 169.515 83.7051 172.487C89.5014 178.289 95.2941 184.096 101.084 189.904C104.565 188.234 107.021 186.658 109.714 183.88C110.757 182.817 110.757 182.818 111.821 181.733C112.547 180.984 113.272 180.234 114.02 179.462C119.205 174.187 124.405 169.085 130.059 164.307C134.048 160.775 137.723 156.924 141.468 153.138C144.729 149.922 148.135 146.946 151.621 143.978C154.406 141.495 156.992 138.862 159.599 136.193C166.657 129.059 172.335 124.855 182.688 124.699C190.46 124.783 194.672 126.3 200.589 131.386C206.582 138.342 207.582 143.823 207.325 152.837C206.549 160.561 202.666 164.247 197.354 169.472C195.954 170.882 194.555 172.293 193.157 173.706C178.992 187.971 178.992 187.972 171.947 193.909C167.967 197.424 164.309 201.268 160.576 205.041C157.339 208.233 153.954 211.179 150.498 214.13C146.467 217.729 142.729 221.618 138.93 225.459C135.611 228.731 132.15 231.77 128.602 234.788C126.298 236.829 124.192 238.986 122.067 241.211C114.214 249.002 108.776 250.532 97.8115 250.639C89.7479 249.335 84.2693 244.473 78.6709 238.822C78.0513 238.202 77.4313 237.581 76.793 236.942C74.7669 234.91 72.7536 232.866 70.7402 230.821C69.3193 229.392 67.8973 227.963 66.4746 226.536C62.7415 222.787 59.0188 219.028 55.2988 215.266C49.3531 209.256 43.3917 203.261 37.4297 197.268C35.3628 195.187 33.3007 193.1 31.2393 191.014C25.2305 184.948 19.2045 178.975 12.6768 173.458C10.3152 171.434 8.21357 169.256 6.16602 166.917C5.49903 166.17 4.83173 165.424 4.14453 164.654C-0.957951 157.63 -0.728759 150.187 -0.000976562 141.827C2.39912 134.888 6.77583 130.62 12.71 126.428ZM181.435 -0.553711C190.601 0.752642 196.629 5.82095 202.771 12.3955C204.131 13.803 205.493 15.2083 206.856 16.6113C207.823 17.6109 207.823 17.6112 208.81 18.6309C210.987 20.8305 213.271 22.8654 215.633 24.8652C220.473 28.9664 224.863 33.4664 229.321 37.9736C231.833 40.4503 234.386 42.7829 237.067 45.0723C241.973 49.2604 246.449 53.8234 250.982 58.4062C253.494 60.8829 256.047 63.2156 258.729 65.5049C264.67 70.5843 270.09 76.1718 275.576 81.7314C276.639 82.7198 277.701 83.7082 278.796 84.7266C284.475 90.8471 284.458 96.6912 284.301 104.718C283.649 112.203 279.931 116.618 274.373 121.395C267.862 125.995 260.415 126.022 252.712 125C247.558 122.881 243.774 120.202 239.7 116.437C238.666 115.482 237.63 114.527 236.564 113.544C232.711 109.864 228.956 106.096 225.213 102.305C222.081 99.2219 218.782 96.3814 215.444 93.5244C212.716 91.0925 210.153 88.5377 207.585 85.9375C204.302 82.6135 200.984 79.4318 197.432 76.3975C191.467 71.2945 186.008 65.6904 180.509 60.0967C176.142 61.9356 173.385 64.5304 170.071 67.8828C168.408 69.5555 168.408 69.5555 166.712 71.2617C166.125 71.858 165.538 72.455 164.933 73.0693C163.086 74.9446 161.231 76.812 159.375 78.6777C154.765 83.3145 150.167 87.9649 145.569 92.6143C141.684 96.5424 137.793 100.465 133.896 104.382C132.077 106.214 130.265 108.054 128.453 109.895C127.337 111.017 126.221 112.14 125.071 113.297C124.097 114.282 123.123 115.269 122.119 116.284C114.086 123.572 108.008 125.374 97.4092 125.259C91.2792 124.812 87.966 122.531 83.4102 118.615C77.4273 111.671 76.6071 106.304 76.5371 97.3564C78.2535 84.4487 90.6597 75.1849 99.7402 66.8389C108.1 59.0817 116.197 51.079 124.227 42.9834C125.409 41.7924 126.592 40.6012 127.775 39.4102C132.634 34.5147 137.489 29.6143 142.332 24.7031C145.343 21.651 148.362 18.6072 151.387 15.5693C153.071 13.8728 154.746 12.1665 156.42 10.46C157.952 8.92329 157.952 8.92322 159.516 7.35547C160.406 6.45437 161.297 5.55341 162.215 4.625C167.071 0.554877 171.645 -0.368616 177.876 -0.450195C179.05 -0.484281 180.225 -0.518592 181.435 -0.553711Z" fill="#767BB4"/>
</mask>
<g mask="url(#mask0_3020_62)">
<rect x="-1.13867" y="-1.13623" width="285.136" height="252.273" fill="url(#paint0_linear_3020_62)"/>
</g>
</g>
<defs>
<linearGradient id="paint0_linear_3020_62" x1="-1.13867" y1="125" x2="283.997" y2="125" gradientUnits="userSpaceOnUse">
<stop offset="0.2" stop-color="#5454D4"/>
<stop offset="1" stop-color="#EAFF4E"/>
</linearGradient>
<clipPath id="clip0_3020_62">
<rect width="284" height="250" fill="white"/>
</clipPath>
</defs>
</svg>
