<svg width="91" height="80" viewBox="0 0 91 80" fill="none" xmlns="http://www.w3.org/2000/svg">
<g clip-path="url(#clip0_3019_40)">
<mask id="mask0_3019_40" style="mask-type:alpha" maskUnits="userSpaceOnUse" x="-1" y="-1" width="93" height="82">
<path d="M4.07227 40.457C6.35515 39.6704 8.90001 39.5071 11.1396 40.4893C12.3107 41.1388 13.1855 41.8097 14.166 42.7148C14.4987 43.022 14.832 43.3291 15.1748 43.6455C16.8464 45.2348 18.4862 46.8537 20.1143 48.4873C20.4681 48.8408 20.8219 49.1944 21.1865 49.5586C22.1141 50.4853 23.0406 51.4137 23.9668 52.3418C24.9175 53.294 25.8696 54.2451 26.8213 55.1963C28.6785 57.0529 30.5345 58.9109 32.3896 60.7695C33.505 60.2351 34.2923 59.7308 35.1553 58.8418C35.4895 58.5018 35.4891 58.5012 35.8301 58.1543C36.0625 57.9145 36.2957 57.6748 36.5352 57.4277C38.1966 55.7398 39.8624 54.107 41.6738 52.5781C42.9523 51.4481 44.13 50.2155 45.3301 49.0039C46.3751 47.9749 47.4662 47.022 48.583 46.0723C49.475 45.2779 50.3037 44.4357 51.1387 43.582C53.4003 41.2989 55.2205 39.9542 58.5381 39.9043C61.0281 39.9313 62.3776 40.4159 64.2734 42.043C66.1939 44.2692 66.5139 46.0238 66.4316 48.9082C66.1827 51.3796 64.939 52.5588 63.2373 54.2305C62.7884 54.6817 62.3395 55.1338 61.8916 55.5859C57.3531 60.1506 57.353 60.1508 55.0957 62.0508C53.8203 63.1754 52.6481 64.4058 51.4521 65.6133C50.4149 66.6347 49.3299 67.5774 48.2227 68.5215C46.9311 69.6732 45.7337 70.9175 44.5166 72.1465C43.4534 73.1935 42.344 74.1662 41.207 75.1318C40.4689 75.7849 39.7939 76.4754 39.1133 77.1875C36.5971 79.6804 34.8548 80.17 31.3418 80.2041C28.758 79.7868 27.0019 78.231 25.208 76.4229C25.0095 76.2244 24.8109 76.0257 24.6064 75.8213C23.9573 75.171 23.3121 74.5166 22.667 73.8623C22.2118 73.4051 21.7556 72.9479 21.2998 72.4912C20.1037 71.2916 18.9106 70.0885 17.7188 68.8848C15.8137 66.9617 13.9035 65.0429 11.9932 63.125C11.331 62.4592 10.6702 61.7916 10.0098 61.124C8.08461 59.1833 6.1539 57.2721 4.0625 55.5068C3.3058 54.859 2.63167 54.1614 1.97559 53.4131C1.76198 53.1743 1.5482 52.9355 1.32812 52.6895C-0.306813 50.4416 -0.233193 48.0597 0 45.3848C0.76899 43.1644 2.17104 41.7984 4.07227 40.457ZM58.1357 -0.176758C61.073 0.241275 63.0044 1.86294 64.9727 3.9668C65.4081 4.41708 65.8443 4.86657 66.2812 5.31543C66.5911 5.63532 66.5913 5.63572 66.9072 5.96191C67.6049 6.66579 68.337 7.31707 69.0938 7.95703C70.6444 9.26934 72.051 10.7092 73.4795 12.1514C74.2843 12.9439 75.1028 13.6903 75.9619 14.4229C77.5337 15.7631 78.9684 17.2239 80.4209 18.6904C81.2257 19.4828 82.0433 20.2294 82.9023 20.9619C84.806 22.5873 86.543 24.3752 88.3008 26.1543C88.6413 26.4706 88.9822 26.7864 89.333 27.1123C91.1528 29.0709 91.1472 30.9412 91.0967 33.5098C90.8878 35.9051 89.6958 37.3183 87.915 38.8467C85.8287 40.3184 83.4426 40.327 80.9746 40C79.3233 39.3219 78.111 38.4646 76.8057 37.2598C76.4741 36.9544 76.1424 36.6486 75.8008 36.334C74.5661 35.1564 73.3625 33.9505 72.1631 32.7373C71.1596 31.7509 70.1024 30.8419 69.0332 29.9277C68.1589 29.1496 67.3375 28.332 66.5146 27.5C65.4627 26.4364 64.4 25.4182 63.2617 24.4473C61.3505 22.8143 59.6009 21.0205 57.8389 19.2305C56.4398 19.8189 55.5568 20.6499 54.4951 21.7227C53.9622 22.258 53.9616 22.2576 53.418 22.8037C53.23 22.9944 53.0423 23.1854 52.8486 23.3818C52.2569 23.9819 51.6622 24.5797 51.0674 25.1768C49.5901 26.6605 48.1167 28.1489 46.6436 29.6367C45.3987 30.8937 44.1519 32.1491 42.9033 33.4023C42.3204 33.9887 41.7396 34.5772 41.1592 35.166C40.8016 35.5252 40.4445 35.8848 40.0762 36.2549C39.764 36.5703 39.4515 36.886 39.1299 37.2109C36.5559 39.5432 34.6082 40.1197 31.2119 40.083C29.2479 39.94 28.1863 39.2099 26.7266 37.957C24.8096 35.7348 24.5469 34.0174 24.5244 31.1543C25.0744 27.0239 29.0494 24.0593 31.959 21.3887C34.6377 18.9064 37.2328 16.3455 39.8057 13.7549C40.1847 13.3738 40.5634 12.9924 40.9424 12.6113C42.4992 11.0448 44.0547 9.4768 45.6064 7.90527C46.5711 6.9286 47.5385 5.9545 48.5078 4.98242C49.0475 4.43952 49.5846 3.89374 50.1211 3.34766C50.6121 2.85591 50.6114 2.85518 51.1123 2.35352C51.3976 2.06521 51.6836 1.77751 51.9775 1.48047C53.5335 0.177968 54.9995 -0.118429 56.9961 -0.144531C57.3722 -0.155433 57.7483 -0.165526 58.1357 -0.176758Z" fill="#767BB4"/>
</mask>
<g mask="url(#mask0_3019_40)">
<rect x="-0.363281" y="-0.36377" width="91.364" height="80.7273" fill="url(#paint0_linear_3019_40)"/>
</g>
</g>
<defs>
<linearGradient id="paint0_linear_3019_40" x1="-0.363281" y1="39.9999" x2="91.0007" y2="39.9999" gradientUnits="userSpaceOnUse">
<stop offset="0.2" stop-color="#5454D4"/>
<stop offset="1" stop-color="#EAFF4E"/>
</linearGradient>
<clipPath id="clip0_3019_40">
<rect width="91" height="80" fill="white"/>
</clipPath>
</defs>
</svg>
