<svg width="568" height="500" viewBox="0 0 568 500" fill="none" xmlns="http://www.w3.org/2000/svg">
<g clip-path="url(#clip0_3020_67)">
<mask id="mask0_3020_67" style="mask-type:alpha" maskUnits="userSpaceOnUse" x="-1" y="-2" width="570" height="504">
<path d="M25.4199 252.854C39.6696 247.938 55.5536 246.917 69.5332 253.056C76.8428 257.116 82.302 261.31 88.4229 266.968C90.4993 268.887 92.5764 270.807 94.7158 272.784C105.15 282.718 115.384 292.834 125.546 303.044C127.756 305.254 129.966 307.465 132.242 309.742C138.032 315.534 143.814 321.333 149.595 327.134C155.529 333.086 161.471 339.03 167.411 344.976C179.004 356.579 190.588 368.191 202.168 379.808C209.129 376.467 214.043 373.317 219.43 367.761C221.516 365.635 221.515 365.635 223.644 363.467C225.095 361.968 226.546 360.469 228.041 358.925C238.412 348.375 248.812 338.169 260.119 328.613C268.099 321.551 275.446 313.847 282.937 306.274C289.46 299.843 296.272 293.891 303.243 287.955C308.812 282.989 313.986 277.723 319.198 272.386C333.314 258.117 344.671 249.712 365.378 249.399C380.922 249.568 389.345 252.6 401.179 262.771C413.166 276.684 415.165 287.646 414.651 305.674C413.098 321.122 405.334 328.493 394.711 338.942C391.909 341.762 389.111 344.586 386.315 347.412C357.986 375.943 357.985 375.943 343.896 387.817C335.935 394.847 328.618 402.534 321.153 410.081C314.678 416.465 307.909 422.36 300.997 428.261C292.934 435.46 285.458 443.237 277.859 450.919C271.223 457.463 264.301 463.541 257.204 469.576C252.597 473.658 248.385 477.971 244.137 482.422C228.431 498.004 217.554 501.065 195.625 501.277C179.497 498.669 168.54 488.946 157.343 477.645C156.104 476.404 154.864 475.164 153.588 473.886C149.536 469.821 145.508 465.731 141.481 461.642C138.64 458.784 135.796 455.928 132.95 453.073C125.484 445.575 118.039 438.056 110.599 430.531C98.7069 418.511 86.7836 406.522 74.8594 394.534C70.7256 390.372 66.6013 386.201 62.4785 382.028C50.4609 369.897 38.409 357.951 25.3535 346.917C20.6304 342.868 16.4281 338.511 12.333 333.834C10.9991 332.341 9.66531 330.847 8.29102 329.309C-1.91403 315.259 -1.45654 300.373 -0.000976562 283.654C4.79919 269.776 13.5517 261.239 25.4199 252.854ZM362.87 -1.10742C381.204 1.50528 393.259 11.6409 405.544 24.79C408.263 27.6052 410.986 30.4164 413.714 33.2227C415.648 35.2221 415.648 35.2226 417.621 37.2627C421.975 41.6618 426.543 45.7308 431.266 49.7305C440.945 57.933 449.727 66.9327 458.644 75.9473C463.668 80.9008 468.774 85.5657 474.137 90.1445C483.947 98.5208 492.899 107.647 501.965 116.812C506.989 121.766 512.096 126.431 517.459 131.01C529.341 141.168 540.182 152.343 551.153 163.462L557.594 169.453C568.952 181.694 568.918 193.382 568.603 209.436C567.299 224.407 559.862 233.236 548.747 242.789C535.724 251.989 520.831 252.045 505.425 250.001C495.117 245.762 487.55 240.404 479.401 232.873C477.332 230.964 475.263 229.055 473.131 227.089C465.424 219.729 457.913 212.192 450.426 204.609C444.162 198.444 437.564 192.764 430.89 187.05C425.432 182.186 420.307 177.076 415.171 171.876C408.604 165.228 401.969 158.864 394.863 152.795C382.934 142.589 372.017 131.38 361.019 120.192C352.285 123.87 346.771 129.06 340.144 135.765C336.817 139.11 336.817 139.111 333.424 142.524L329.865 146.139C326.172 149.889 322.463 153.625 318.75 157.356C309.53 166.63 300.336 175.929 291.141 185.228C283.37 193.084 275.588 200.931 267.794 208.765C264.155 212.43 260.531 216.109 256.908 219.789C254.676 222.035 252.443 224.281 250.143 226.595C248.194 228.566 246.246 230.537 244.238 232.568C228.173 247.145 216.017 250.746 194.818 250.517C182.559 249.623 175.933 245.061 166.821 237.23C154.855 223.341 153.216 212.608 153.076 194.712C156.509 168.896 181.32 150.369 199.481 133.677C216.201 118.162 232.395 102.157 248.454 85.9658C250.82 83.5836 253.186 81.2015 255.552 78.8193C265.27 69.0285 274.979 59.2286 284.665 49.4062C290.686 43.3019 296.725 37.2153 302.775 31.1396C306.144 27.7465 309.493 24.3339 312.842 20.9209C315.906 17.8475 315.907 17.8474 319.033 14.7119C320.814 12.9097 322.596 11.1068 324.431 9.25C334.142 1.10973 343.291 -0.738201 355.753 -0.901367C358.101 -0.969538 360.45 -1.03719 362.87 -1.10742Z" fill="#767BB4"/>
</mask>
<g mask="url(#mask0_3020_67)">
<rect x="-2.27539" y="-2.27246" width="570.272" height="504.545" fill="url(#paint0_linear_3020_67)"/>
</g>
</g>
<defs>
<linearGradient id="paint0_linear_3020_67" x1="-2.27539" y1="250" x2="567.997" y2="250" gradientUnits="userSpaceOnUse">
<stop offset="0.2" stop-color="#5454D4"/>
<stop offset="1" stop-color="#EAFF4E"/>
</linearGradient>
<clipPath id="clip0_3020_67">
<rect width="568" height="500" fill="white"/>
</clipPath>
</defs>
</svg>
