<svg width="136" height="120" viewBox="0 0 136 120" fill="none" xmlns="http://www.w3.org/2000/svg">
<g clip-path="url(#clip0_3020_46)">
<mask id="mask0_3020_46" style="mask-type:alpha" maskUnits="userSpaceOnUse" x="-1" y="-1" width="138" height="122">
<path d="M6.08594 60.6855C9.49786 59.5056 13.3012 59.26 16.6484 60.7334C18.3985 61.7077 19.7054 62.7144 21.1709 64.0723C21.6681 64.5329 22.1655 64.9932 22.6777 65.4678C25.176 67.8518 27.6264 70.28 30.0596 72.7305C30.5886 73.2609 31.118 73.7913 31.6631 74.3379C33.0492 75.7278 34.4334 77.1197 35.8174 78.5117C37.2382 79.9401 38.6616 81.3671 40.084 82.7939C42.8596 85.5789 45.6327 88.3663 48.4053 91.1543C50.0721 90.3526 51.2493 89.5962 52.5391 88.2627C53.0384 87.7528 53.0384 87.7527 53.5479 87.2324C53.8953 86.8727 54.2426 86.5123 54.6006 86.1416C57.0837 83.6096 59.574 81.1606 62.2812 78.8672C64.1918 77.1722 65.9507 75.3232 67.7441 73.5059C69.3059 71.9623 70.9373 70.534 72.6064 69.1094C73.9398 67.9177 75.1787 66.6538 76.4268 65.373C79.8067 61.9484 82.5263 59.9304 87.4844 59.8555C91.2057 59.8959 93.2225 60.6239 96.0557 63.0645C98.9257 66.4037 99.4051 69.0349 99.2822 73.3613C98.9104 77.0688 97.0511 78.8381 94.5078 81.3457C93.837 82.0225 93.1664 82.7006 92.4971 83.3789C85.7141 90.226 85.7142 90.2264 82.3408 93.0762C80.4347 94.7632 78.6829 96.6087 76.8955 98.4199C75.3451 99.9521 73.7233 101.366 72.0684 102.782C70.1378 104.51 68.3485 106.377 66.5293 108.221C64.9403 109.791 63.2823 111.25 61.583 112.698C60.48 113.678 59.4713 114.713 58.4541 115.781C54.6935 119.521 52.0895 120.256 46.8389 120.307C42.9774 119.681 40.3538 117.347 37.6729 114.635C37.3761 114.337 37.0791 114.039 36.7734 113.732C35.8032 112.757 34.8392 111.775 33.875 110.794C33.1946 110.108 32.5133 109.422 31.832 108.737C30.0444 106.938 28.2618 105.133 26.4805 103.327C23.6333 100.443 20.7788 97.5653 17.9238 94.6885C16.934 93.6896 15.9462 92.688 14.959 91.6865C12.0816 88.7751 9.19619 85.9079 6.07031 83.2598C4.93942 82.288 3.93267 81.2427 2.95215 80.1201C2.6328 79.7617 2.3134 79.4034 1.98438 79.0342C-0.459063 75.6624 -0.349485 72.0896 -0.000976562 68.0771C1.14835 64.7464 3.24429 62.6978 6.08594 60.6855ZM86.8838 -0.265625C91.2734 0.361461 94.1601 2.79349 97.1016 5.94922C97.7525 6.62486 98.4044 7.30013 99.0576 7.97363C99.5205 8.45333 99.5208 8.45379 99.9932 8.94336C101.036 9.99906 102.129 10.9757 103.26 11.9355C105.577 13.9042 107.68 16.064 109.815 18.2275C111.018 19.4163 112.241 20.5359 113.525 21.6348C115.874 23.645 118.018 25.8355 120.188 28.0352C121.391 29.2239 122.614 30.3436 123.897 31.4424C126.743 33.8805 129.339 36.5619 131.966 39.2305C132.475 39.7049 132.984 40.1801 133.508 40.6689C136.227 43.6067 136.219 46.412 136.144 50.2646C135.831 53.8576 134.051 55.9769 131.39 58.2695C128.271 60.4776 124.705 60.4905 121.017 60C118.548 58.9827 116.736 57.6971 114.785 55.8896C114.29 55.4316 113.795 54.9729 113.284 54.501C111.439 52.7346 109.64 50.9262 107.848 49.1064C106.348 47.6267 104.768 46.2629 103.17 44.8916C101.863 43.7243 100.636 42.4981 99.4062 41.25C97.834 39.6545 96.2453 38.1274 94.5439 36.6709C91.6877 34.2215 89.0737 31.5316 86.4404 28.8467C84.3493 29.7294 83.0292 30.9748 81.4424 32.584C80.646 33.387 80.6455 33.3868 79.833 34.2061C79.5519 34.4922 79.271 34.7784 78.9814 35.0732C78.0971 35.9734 77.2083 36.87 76.3193 37.7656C74.1117 39.9912 71.9105 42.2235 69.709 44.4551C67.8484 46.3406 65.9853 48.2235 64.1191 50.1035C63.248 50.9831 62.3802 51.8659 61.5127 52.749C60.9781 53.288 60.4433 53.8275 59.8926 54.3828C59.4261 54.8559 58.9592 55.329 58.4785 55.8164C54.6319 59.3146 51.7212 60.1791 46.6455 60.124C43.7104 59.9096 42.1239 58.8147 39.9424 56.9355C37.0773 53.6021 36.6849 51.0255 36.6514 46.7305C37.4735 40.5349 43.4144 36.088 47.7627 32.082C51.7659 28.3587 55.6433 24.5176 59.4883 20.6318C60.0547 20.0602 60.6211 19.4886 61.1875 18.917C63.5143 16.5672 65.839 14.2148 68.1582 11.8574C69.5999 10.3923 71.0464 8.93182 72.4951 7.47363C73.3017 6.65932 74.1036 5.83959 74.9053 5.02051C75.6387 4.2833 75.6393 4.28359 76.3877 3.53125C76.8142 3.09871 77.2403 2.66537 77.6797 2.21973C80.0051 0.266092 82.1958 -0.176668 85.1797 -0.21582C85.742 -0.232181 86.3044 -0.248769 86.8838 -0.265625Z" fill="#767BB4"/>
</mask>
<g mask="url(#mask0_3020_46)">
<rect x="-0.544922" y="-0.54541" width="136.544" height="121.091" fill="url(#paint0_linear_3020_46)"/>
</g>
</g>
<defs>
<linearGradient id="paint0_linear_3020_46" x1="-0.544921" y1="60" x2="135.999" y2="60" gradientUnits="userSpaceOnUse">
<stop offset="0.2" stop-color="#5454D4"/>
<stop offset="1" stop-color="#EAFF4E"/>
</linearGradient>
<clipPath id="clip0_3020_46">
<rect width="136" height="120" fill="white"/>
</clipPath>
</defs>
</svg>
