<svg width="50" height="50" viewBox="0 0 50 50" fill="none" xmlns="http://www.w3.org/2000/svg">
<path fillRule="evenodd" clip-rule="evenodd" d="M41.5177 2.04792C38.1167 1.8125 32.7115 1.5625 25 1.5625C17.2885 1.5625 11.8833 1.81146 8.48229 2.04792C5.08125 2.28437 2.37604 4.85417 2.07396 8.29167C1.81458 11.2437 1.5625 15.7021 1.5625 21.875C1.5625 28.0479 1.81458 32.5062 2.07396 35.4594C2.37604 38.8969 5.08125 41.4646 8.48229 41.7021C11.6531 41.9229 16.5656 42.1542 23.4646 42.1844L23.4531 42.1719C22.29 41.0115 21.5542 39.4914 21.3656 37.8594C20.3833 36.6167 19.7917 35.0437 19.7917 33.3333C19.7917 31.6229 20.3823 30.05 21.3667 28.8083C21.5548 27.176 22.2902 25.6556 23.4531 24.4948C24.6135 23.3317 26.1336 22.5959 27.7656 22.4073C29.0094 21.424 30.5823 20.8333 32.2917 20.8333C34.001 20.8333 35.575 21.424 36.8177 22.4073C38.4498 22.5959 39.9698 23.3317 41.1302 24.4948C42.2933 25.6552 43.0291 27.1752 43.2177 28.8073C44.201 30.051 44.7917 31.624 44.7917 33.3333C44.7917 35.0427 44.201 36.6167 43.2177 37.8594C43.053 39.2728 42.4784 40.6071 41.5646 41.6979C44.9437 41.4406 47.625 38.8812 47.926 35.4594C48.1854 32.5062 48.4375 28.0479 48.4375 21.875C48.4375 15.7021 48.1854 11.2437 47.926 8.29062C47.624 4.85313 44.9187 2.28542 41.5177 2.04792Z" fill="#8FBFFA"/>
<path fillRule="evenodd" clip-rule="evenodd" d="M10.416 12.4998C10.416 11.9473 10.6355 11.4174 11.0262 11.0267C11.4169 10.636 11.9468 10.4165 12.4993 10.4165H34.3743C34.9269 10.4165 35.4568 10.636 35.8475 11.0267C36.2382 11.4174 36.4577 11.9473 36.4577 12.4998C36.4577 13.0524 36.2382 13.5823 35.8475 13.973C35.4568 14.3637 34.9269 14.5832 34.3743 14.5832H12.4993C11.9468 14.5832 11.4169 14.3637 11.0262 13.973C10.6355 13.5823 10.416 13.0524 10.416 12.4998ZM12.4993 18.7498C11.9468 18.7498 11.4169 18.9693 11.0262 19.36C10.6355 19.7507 10.416 20.2806 10.416 20.8332C10.416 21.3857 10.6355 21.9156 11.0262 22.3063C11.4169 22.697 11.9468 22.9165 12.4993 22.9165H18.7493C19.3019 22.9165 19.8318 22.697 20.2225 22.3063C20.6132 21.9156 20.8327 21.3857 20.8327 20.8332C20.8327 20.2806 20.6132 19.7507 20.2225 19.36C19.8318 18.9693 19.3019 18.7498 18.7493 18.7498H12.4993ZM22.916 33.3332C22.916 34.6425 23.5202 35.8113 24.465 36.5748C24.3993 37.1931 24.4727 37.8182 24.68 38.4043C24.8873 38.9905 25.2231 39.5228 25.6629 39.9623C26.3248 40.6269 27.1926 41.0474 28.1243 41.155C28.1303 43.3774 28.1998 45.5991 28.3327 47.8175C28.3848 48.6925 29.4337 49.0925 30.0671 48.4863L31.7493 46.8717C31.8948 46.7323 32.0885 46.6544 32.29 46.6544C32.4915 46.6544 32.6851 46.7323 32.8306 46.8717L34.5129 48.4863C35.1462 49.0925 36.1952 48.6925 36.2483 47.8175C36.3812 45.5991 36.4507 43.3774 36.4566 41.155C37.3883 41.046 38.256 40.6258 38.9191 39.9623C39.3589 39.5228 39.6947 38.9905 39.902 38.4043C40.1093 37.8182 40.1828 37.1931 40.1171 36.5748C40.6007 36.1843 40.9909 35.6904 41.2589 35.1295C41.5269 34.5686 41.666 33.9548 41.666 33.3332C41.666 32.0238 41.0618 30.855 40.1171 30.0915C40.1829 29.4733 40.1096 28.8483 39.9025 28.2621C39.6954 27.676 39.3597 27.1436 38.9202 26.704C38.4807 26.2642 37.9483 25.9284 37.3622 25.7211C36.776 25.5139 36.1509 25.4404 35.5327 25.5061C35.142 25.0226 34.6481 24.6327 34.0872 24.3648C33.5263 24.097 32.9126 23.9581 32.291 23.9582C30.9816 23.9582 29.8129 24.5623 29.0493 25.5071C28.4312 25.4413 27.8061 25.5146 27.22 25.7217C26.6338 25.9288 26.1014 26.2644 25.6618 26.704C25.2221 27.1435 24.8863 27.6758 24.679 28.262C24.4717 28.8481 24.3982 29.4733 24.4639 30.0915C23.9805 30.4822 23.5905 30.976 23.3227 31.537C23.0548 32.0979 22.9159 32.7116 22.916 33.3332Z" fill="#2859C5"/>
<path d="M29.6875 33.3332C29.6875 34.0238 29.9619 34.6862 30.4502 35.1746C30.9386 35.663 31.601 35.9373 32.2917 35.9373C32.9823 35.9373 33.6447 35.663 34.1331 35.1746C34.6215 34.6862 34.8958 34.0238 34.8958 33.3332C34.8958 32.6425 34.6215 31.9801 34.1331 31.4917C33.6447 31.0034 32.9823 30.729 32.2917 30.729C31.601 30.729 30.9386 31.0034 30.4502 31.4917C29.9619 31.9801 29.6875 32.6425 29.6875 33.3332Z" fill="#8FBFFA"/>
</svg>
