<svg width="50" height="50" viewBox="0 0 50 50" fill="none" xmlns="http://www.w3.org/2000/svg">
<path d="M2.80664 12.107C2.80759 9.64108 3.78782 7.27651 5.53181 5.53319C7.2758 3.78988 9.64075 2.81055 12.1066 2.81055H36.9066C39.3719 2.81149 41.7359 3.79124 43.4792 5.53445C45.2224 7.27767 46.2021 9.6417 46.2031 12.107V36.907C46.2031 39.3729 45.2237 41.7378 43.4804 43.4818C41.7371 45.2258 39.3725 46.206 36.9066 46.207H12.1066C9.64013 46.207 7.27464 45.2272 5.53055 43.4831C3.78646 41.739 2.80664 39.3735 2.80664 36.907V12.107Z" fill="#8FBFFA"/>
<path d="M39.1682 11.9747C39.1682 12.5739 38.9303 13.1484 38.5066 13.5721C38.083 13.9957 37.5084 14.2337 36.9093 14.2337C36.3102 14.2337 35.7356 13.9957 35.312 13.5721C34.8884 13.1484 34.6504 12.5739 34.6504 11.9747C34.6504 11.3756 34.8884 10.8011 35.312 10.3774C35.7356 9.95381 36.3102 9.71582 36.9093 9.71582C37.5084 9.71582 38.083 9.95381 38.5066 10.3774C38.9303 10.8011 39.1682 11.3756 39.1682 11.9747Z" fill="#2859C5"/>
<path fillRule="evenodd" clip-rule="evenodd" d="M36.9023 14.8C37.6127 14.8 38.294 14.5178 38.7963 14.0155C39.2987 13.5131 39.5809 12.8318 39.5809 12.1214C39.5809 11.411 39.2987 10.7297 38.7963 10.2274C38.294 9.72508 37.6127 9.44287 36.9023 9.44287C36.1919 9.44287 35.5106 9.72508 35.0083 10.2274C34.5059 10.7297 34.2237 11.411 34.2237 12.1214C34.2237 12.8318 34.5059 13.5131 35.0083 14.0155C35.5106 14.5178 36.1919 14.8 36.9023 14.8ZM13.5059 24.5072C13.5059 21.5898 14.6648 18.7919 16.7277 16.729C18.7906 14.6661 21.5885 13.5072 24.5059 13.5072C27.4232 13.5072 30.2211 14.6661 32.284 16.729C34.3469 18.7919 35.5059 21.5898 35.5059 24.5072C35.5059 27.4245 34.3469 30.2224 32.284 32.2853C30.2211 34.3482 27.4232 35.5072 24.5059 35.5072C21.5885 35.5072 18.7906 34.3482 16.7277 32.2853C14.6648 30.2224 13.5059 27.4245 13.5059 24.5072Z" fill="#2859C5"/>
</svg>
