<svg width="50" height="50" viewBox="0 0 50 50" fill="none" xmlns="http://www.w3.org/2000/svg">
<g clip-path="url(#clip0_3021_959)">
<path d="M9.90556 37.6686C9.8774 37.4085 9.91503 37.1454 10.015 36.9036C10.115 36.6618 10.2741 36.4489 10.4777 36.2846C10.6813 36.1202 10.923 36.0097 11.1805 35.963C11.438 35.9164 11.703 35.9351 11.9514 36.0176L11.966 36.0218L12.0493 36.0478C12.1285 36.0721 12.2528 36.1065 12.4222 36.1509C12.7618 36.2395 13.2764 36.3614 13.9514 36.4843C15.3024 36.7291 17.292 36.9791 19.792 36.9791C22.292 36.9791 24.2816 36.7291 25.6326 36.4832C26.1463 36.3917 26.6564 36.2808 27.1618 36.1509C27.3148 36.111 27.4669 36.068 27.6181 36.0218L27.6326 36.0176H27.6347C27.8829 35.9356 28.1478 35.9171 28.405 35.964C28.6622 36.0108 28.9035 36.1215 29.1069 36.2858C29.3102 36.45 29.4691 36.6627 29.569 36.9043C29.6688 37.1459 29.7065 37.4087 29.6785 37.6686L28.9326 44.5582C28.6878 46.8134 27.0712 48.8582 24.5972 49.1832C23.3576 49.3457 21.7431 49.4791 19.792 49.4791C17.7399 49.4791 16.1472 49.3311 14.9774 49.1541C12.8243 48.828 11.4066 47.1176 11.0472 45.1989C10.6962 43.3291 10.2129 40.5061 9.90556 37.6686Z" fill="#2859C5"/>
<path fillRule="evenodd" clip-rule="evenodd" d="M29.5798 5.27067L26.5059 6.95296C22.5319 9.12588 22.5319 14.8321 26.5059 17.005L30.2996 19.08C30.5616 19.2234 30.7771 19.4388 30.9204 19.7009L32.9944 23.4946C34.1715 25.6478 36.3871 26.6342 38.5152 26.453C37.4949 30.6232 35.1112 34.3333 31.7423 36.9946C31.5674 37.6177 31.3847 38.2386 31.1944 38.8571C30.7048 40.455 29.3454 41.679 27.5986 41.8613C26.085 42.0186 23.5829 42.1873 19.7923 42.1873C16.0007 42.1873 13.4996 42.0186 11.9861 41.8613C10.2392 41.679 8.88086 40.455 8.39023 38.8571C8.19989 38.2386 8.01723 37.6177 7.84232 36.9946C3.38607 33.4675 0.521484 28.005 0.521484 21.8748C0.521484 11.2321 9.14961 2.604 19.7923 2.604C23.3652 2.604 26.7111 3.57692 29.5798 5.27067Z" fill="#8FBFFA"/>
<path fillRule="evenodd" clip-rule="evenodd" d="M40.3053 1.9623C39.3178 0.157096 36.7241 0.157096 35.7366 1.9623L33.6616 5.75606C33.2314 6.54267 32.5847 7.18941 31.798 7.6196L28.0043 9.6946C26.1991 10.6821 26.1991 13.2758 28.0043 14.2633L31.798 16.3383C32.5847 16.7685 33.2314 17.4153 33.6616 18.2019L35.7366 21.9956C36.7241 23.8008 39.3178 23.8008 40.3053 21.9956L42.3803 18.2019C42.8105 17.4153 43.4573 16.7685 44.2439 16.3383L48.0376 14.2633C49.8428 13.2758 49.8428 10.6821 48.0376 9.6946L44.2439 7.6196C43.4573 7.18941 42.8105 6.54267 42.3803 5.75606L40.3053 1.9623Z" fill="#2859C5"/>
</g>
<defs>
<clipPath id="clip0_3021_959">
<rect width="50" height="50" fill="white"/>
</clipPath>
</defs>
</svg>
