<svg width="50" height="50" viewBox="0 0 50 50" fill="none" xmlns="http://www.w3.org/2000/svg">
<path fillRule="evenodd" clip-rule="evenodd" d="M48.6674 25.0107C48.6674 12.1285 37.9067 1.34638 24.9996 1.35352C12.1067 1.36066 1.35673 12.1214 1.35673 25.0107C1.35673 29.3428 2.55673 33.6249 4.81387 37.3285L1.46387 46.2499C1.35275 46.5455 1.32196 46.8652 1.37466 47.1765C1.42735 47.4878 1.56164 47.7796 1.76384 48.0221C1.96603 48.2645 2.22891 48.4491 2.52567 48.5569C2.82243 48.6647 3.14247 48.6919 3.45316 48.6357L15.1674 46.5178C18.2537 47.9253 21.6075 48.6502 24.9996 48.6428C37.9067 48.6499 48.6674 37.9035 48.6674 25.0107Z" fill="#8FBFFA"/>
<path d="M26.2705 36.8354C30.167 39.3354 34.242 37.1854 36.8741 35.0568C38.3134 33.8926 38.267 31.7711 37.0027 30.4211L34.7027 27.9747C34.0134 27.239 32.8313 27.2354 31.8991 27.6176C30.7848 28.064 29.4705 28.1997 28.4527 27.889C25.0741 26.8604 23.6563 25.1033 22.5098 23.314C21.5955 21.889 22.0313 19.9783 22.7705 18.5533C23.2384 17.6497 23.2134 16.4568 22.4598 15.7676L19.9884 13.514C18.8134 12.4426 17.0348 12.2568 15.9527 13.4247C13.2491 16.3426 11.4384 21.139 13.3598 24.1318C16.642 29.239 21.1634 33.5533 26.2705 36.8354Z" fill="#2859C5"/>
</svg>
