<svg width="51" height="50" viewBox="0 0 51 50" fill="none" xmlns="http://www.w3.org/2000/svg">
<g clip-path="url(#clip0_3021_955)">
<path d="M13.3244 15.0266C15.2324 15.0266 17.0622 14.2677 18.4114 12.9169C19.7605 11.5661 20.5184 9.73398 20.5184 7.82362C20.5184 5.91326 19.7605 4.08115 18.4114 2.73032C17.0622 1.37949 15.2324 0.620605 13.3244 0.620605C11.4165 0.620605 9.58664 1.37949 8.2375 2.73032C6.88836 4.08115 6.13043 5.91326 6.13043 7.82362C6.13043 9.73398 6.88836 11.5661 8.2375 12.9169C9.58664 14.2677 11.4165 15.0266 13.3244 15.0266ZM7.17411 16.8928C9.22137 16.7487 11.2733 16.6807 13.3255 16.6889C15.953 16.6889 17.9806 16.7808 19.4759 16.8928C21.7724 17.0634 23.5731 18.7135 24.0601 20.942C24.3766 22.3937 24.7474 24.272 25.0894 26.4639C22.0347 27.5721 19.9817 30.3657 19.6784 33.5594C19.4981 35.503 19.4094 37.4541 19.4128 39.4061C19.4128 41.7775 19.5378 43.7611 19.6784 45.2494L19.5888 46.4695C19.4659 48.1306 18.275 49.5712 16.5518 49.7607C15.6664 49.8571 14.5718 49.9335 13.3255 49.9335C12.2474 49.9339 11.1701 49.8758 10.0982 49.7596C8.37496 49.5712 7.18518 48.1306 7.06233 46.4695L6.323 36.4739C5.6143 36.4396 4.90593 36.3986 4.198 36.3509C3.71341 36.3198 3.24003 36.1913 2.80605 35.9732C2.37207 35.7551 1.98637 35.4517 1.67191 35.0813C1.35746 34.7108 1.12068 34.2807 0.975673 33.8167C0.830671 33.3527 0.78041 32.8642 0.827886 32.3804C1.18058 28.5357 1.76901 24.7165 2.58987 20.9442C3.07684 18.7157 4.87867 17.0645 7.17411 16.8928Z" fill="#8FBFFA"/>
<path fillRule="evenodd" clip-rule="evenodd" d="M29.6775 29.1003C29.9335 28.2183 30.2391 27.3514 30.5928 26.5039C31.2358 24.9403 32.6348 23.6781 34.4798 23.4587C35.1726 23.3773 35.8696 23.337 36.5671 23.3379C37.364 23.3379 38.0657 23.3878 38.6556 23.4587C40.5006 23.6781 41.8985 24.9403 42.5415 26.5039C42.8414 27.2331 43.1878 28.154 43.4568 29.1003C44.3666 29.1668 45.1369 29.2444 45.781 29.3219C48.2048 29.6145 49.9281 31.5272 50.1505 33.8743C50.2834 35.2694 50.4018 37.1477 50.4018 39.4062C50.4018 41.6646 50.2834 43.5429 50.1505 44.9381C49.9281 47.2841 48.2059 49.1978 45.781 49.4915C43.9028 49.7176 40.9632 49.9337 36.5671 49.9337C32.1711 49.9337 29.2315 49.7176 27.3533 49.4904C24.9294 49.1978 23.2062 47.2852 22.9837 44.9381C22.8132 43.0991 22.7293 41.2531 22.7325 39.4062C22.7325 37.1477 22.8509 35.2694 22.9837 33.8743C23.2062 31.5283 24.9283 29.6145 27.3533 29.3208C27.9985 29.2433 28.7677 29.1668 29.6775 29.0992V29.1003ZM34.8705 26.7599C35.3397 26.7045 35.9108 26.6624 36.5671 26.6624C37.2246 26.6624 37.7957 26.7045 38.2638 26.7599C38.7508 26.8175 39.2201 27.1588 39.4713 27.7694C39.6196 28.1318 39.7724 28.523 39.914 28.9252C38.9083 28.8949 37.7927 28.8794 36.5671 28.8787C34.7288 28.8776 34.2285 28.8953 33.2203 28.9241C33.363 28.523 33.5147 28.1318 33.663 27.7694C33.9142 27.1599 34.3846 26.8175 34.8705 26.7599Z" fill="#2859C5"/>
</g>
<defs>
<clipPath id="clip0_3021_955">
<rect width="51" height="50" fill="white"/>
</clipPath>
</defs>
</svg>
